<svg version="1.1" id="Layer_1" xmlns="http://www.w3.org/2000/svg" xmlns:xlink="http://www.w3.org/1999/xlink" x="0px" y="0px"
	 width="100%" viewBox="0 0 150 150" enable-background="new 0 0 150 150" xml:space="preserve">
<path fill="#FDFDFD" opacity="1.000000" stroke="none" 
	d="
M84.000000,151.000000 
	C56.022930,151.000000 28.545860,151.000000 1.034395,151.000000 
	C1.034395,101.064644 1.034395,51.129250 1.034395,1.096930 
	C50.893520,1.096930 100.787292,1.096930 150.840530,1.096930 
	C150.840530,50.999596 150.840530,100.999748 150.840530,151.000000 
	C128.796280,151.000000 106.648140,151.000000 84.000000,151.000000 
M62.670773,31.170391 
	C57.380348,36.474567 52.048897,41.738689 46.815598,47.098637 
	C43.890965,50.094044 44.283562,51.660389 48.133198,53.181496 
	C52.279964,54.820004 55.640194,53.325924 58.489864,50.357849 
	C63.884571,44.739010 69.199020,39.043114 74.740974,33.173595 
	C77.103348,35.299072 78.497734,36.448147 79.772362,37.717472 
	C88.384056,46.293354 96.963516,54.901592 105.568504,63.484222 
	C108.796715,66.704048 112.461861,68.126328 116.853729,65.912354 
	C119.862335,64.395699 120.726784,62.641865 117.918564,59.852272 
	C104.808212,46.828827 91.769760,33.732368 78.788734,20.579973 
	C76.598900,18.361235 75.005211,18.575315 72.998940,20.723654 
	C69.818924,24.128841 66.456284,27.363487 62.670773,31.170391 
M38.597797,57.895535 
	C36.504959,59.046627 34.412121,60.197723 32.319279,61.348812 
	C33.543755,63.036015 34.762905,64.727135 35.998199,66.406380 
	C36.193600,66.671997 36.461201,66.884689 36.696560,67.120712 
	C48.817307,79.275383 60.935543,91.432556 73.062363,103.581169 
	C74.574677,105.096199 75.962379,107.122391 78.374855,104.689377 
	C87.527634,95.458702 96.710678,86.258018 105.887207,77.050919 
	C107.832390,75.099251 107.186554,73.550171 105.200150,72.143639 
	C101.782951,69.723999 97.042793,70.284317 93.391937,73.824577 
	C88.607018,78.464516 83.867424,83.160065 79.302025,88.013878 
	C76.930931,90.534767 75.230438,90.567825 72.769600,88.035316 
	C64.291985,79.310783 55.716995,70.673843 46.941738,62.250809 
	C44.906403,60.297173 41.931068,59.322842 38.597797,57.895535 
M90.488388,67.957069 
	C96.759529,61.607304 96.338722,63.111729 90.402473,56.994682 
	C87.153908,53.647182 83.801529,50.400688 80.524544,47.080444 
	C77.915710,44.437176 74.945976,43.658566 72.212692,46.439938 
	C69.616585,49.081711 69.772018,52.278225 72.548599,54.838062 
	C75.109131,57.198719 77.960121,59.244320 81.075432,61.743347 
	C77.546310,65.456070 75.132988,67.926468 72.798752,70.469467 
	C70.362602,73.123482 70.293045,75.928543 72.940804,78.396957 
	C75.434517,80.721764 78.097412,80.388687 80.473198,78.035583 
	C83.669235,74.870064 86.815567,71.654366 90.488388,67.957069 
M85.885269,115.705696 
	C83.103058,114.884644 82.418076,116.513542 82.075150,118.803230 
	C81.763046,120.887062 81.203201,122.933777 80.752563,124.996857 
	C79.258438,123.366409 78.924866,121.726822 78.160378,120.321663 
	C77.536690,119.175293 76.397957,118.309135 75.487595,117.318733 
	C74.647728,118.381477 73.586998,119.339439 73.021111,120.532173 
	C72.225159,122.209854 71.796356,124.061729 71.321808,125.501526 
	C67.438919,123.096252 71.592911,115.879799 63.653763,115.320572 
	C65.182060,121.080765 66.348778,125.916725 67.821808,130.657516 
	C68.114075,131.598160 69.515717,132.610077 70.529930,132.762375 
	C71.192055,132.861801 72.408249,131.612610 72.797623,130.716187 
	C73.702110,128.633865 74.256050,126.399284 75.265511,123.247879 
	C76.385147,126.472176 77.000130,128.692139 77.947418,130.759872 
	C78.350990,131.640778 79.567596,132.870972 80.204681,132.757980 
	C81.220444,132.577881 82.616493,131.565170 82.881584,130.629623 
	C84.234840,125.853981 85.276825,120.990143 85.885269,115.705696 
M102.683952,121.619820 
	C102.684753,124.282265 102.566422,126.952888 102.748161,129.602921 
	C102.815735,130.588348 103.324188,131.946503 104.078651,132.415497 
	C108.502136,135.165253 114.442131,132.102142 114.977730,126.932762 
	C115.510300,121.792587 113.472710,119.680580 106.936081,118.657791 
	C106.677383,116.971321 106.415611,115.264801 106.093567,113.165344 
	C100.806000,114.268135 103.403130,118.203651 102.683952,121.619820 
M60.163841,131.797180 
	C63.690372,128.071686 63.425514,123.655106 62.178215,119.236809 
	C61.233395,115.889954 58.646194,114.414467 55.268898,115.135765 
	C51.351849,115.972313 49.215157,122.387718 50.792454,127.945442 
	C52.034538,132.322021 54.487286,133.526215 60.163841,131.797180 
M95.576126,127.732407 
	C96.966988,127.603722 98.357841,127.475029 99.930077,127.329567 
	C99.814102,123.009270 98.850456,119.707207 94.437363,119.377609 
	C90.601234,119.091110 88.096573,121.278809 87.677673,125.146751 
	C87.269897,128.912018 88.274803,132.338837 92.585678,133.026855 
	C94.831741,133.385315 98.179886,134.759323 99.118553,130.515701 
	C96.549858,129.984695 94.366402,129.533310 92.182945,129.081940 
	C92.237457,128.739639 92.291962,128.397354 92.346474,128.055069 
	C93.143791,127.948135 93.941116,127.841209 95.576126,127.732407 
M41.304043,121.463448 
	C41.421688,124.593521 41.444016,127.732323 41.729118,130.847061 
	C41.794186,131.557907 42.766743,132.185684 43.321629,132.851685 
	C44.022388,132.170044 45.305908,131.508682 45.330467,130.803497 
	C45.505627,125.774513 45.423908,120.736595 45.423908,114.593040 
	C41.928246,116.552803 39.576302,117.871361 37.224358,119.189926 
	C37.230362,119.597496 37.236366,120.005066 37.242371,120.412636 
	C38.353893,120.652885 39.465420,120.893135 41.304043,121.463448 
M68.532387,65.091034 
	C69.139267,63.726589 70.513451,62.151947 70.208115,61.037407 
	C69.318016,57.788296 64.465073,55.690945 61.727871,57.067898 
	C58.438297,58.722717 58.031284,61.578548 59.324242,64.620316 
	C60.704987,67.868599 63.957310,68.133362 68.532387,65.091034 
z"/>
<path fill="#3A424D" opacity="1.000000" stroke="none" 
	d="
M62.920841,30.920341 
	C66.456284,27.363487 69.818924,24.128841 72.998940,20.723654 
	C75.005211,18.575315 76.598900,18.361235 78.788734,20.579973 
	C91.769760,33.732368 104.808212,46.828827 117.918564,59.852272 
	C120.726784,62.641865 119.862335,64.395699 116.853729,65.912354 
	C112.461861,68.126328 108.796715,66.704048 105.568504,63.484222 
	C96.963516,54.901592 88.384056,46.293354 79.772362,37.717472 
	C78.497734,36.448147 77.103348,35.299072 74.740974,33.173595 
	C69.199020,39.043114 63.884571,44.739010 58.489864,50.357849 
	C55.640194,53.325924 52.279964,54.820004 48.133198,53.181496 
	C44.283562,51.660389 43.890965,50.094044 46.815598,47.098637 
	C52.048897,41.738689 57.380348,36.474567 62.920841,30.920341 
z"/>
<path fill="#38404B" opacity="1.000000" stroke="none" 
	d="
M38.993034,57.896713 
	C41.931068,59.322842 44.906403,60.297173 46.941738,62.250809 
	C55.716995,70.673843 64.291985,79.310783 72.769600,88.035316 
	C75.230438,90.567825 76.930931,90.534767 79.302025,88.013878 
	C83.867424,83.160065 88.607018,78.464516 93.391937,73.824577 
	C97.042793,70.284317 101.782951,69.723999 105.200150,72.143639 
	C107.186554,73.550171 107.832390,75.099251 105.887207,77.050919 
	C96.710678,86.258018 87.527634,95.458702 78.374855,104.689377 
	C75.962379,107.122391 74.574677,105.096199 73.062363,103.581169 
	C60.935543,91.432556 48.817307,79.275383 36.696560,67.120712 
	C36.461201,66.884689 36.193600,66.671997 35.998199,66.406380 
	C34.762905,64.727135 33.543755,63.036015 32.319279,61.348816 
	C34.412121,60.197723 36.504959,59.046627 38.993034,57.896713 
z"/>
<path fill="#3B424D" opacity="1.000000" stroke="none" 
	d="
M90.235809,68.208633 
	C86.815567,71.654366 83.669235,74.870064 80.473198,78.035583 
	C78.097412,80.388687 75.434517,80.721764 72.940804,78.396957 
	C70.293045,75.928543 70.362602,73.123482 72.798752,70.469467 
	C75.132988,67.926468 77.546310,65.456070 81.075432,61.743347 
	C77.960121,59.244320 75.109131,57.198719 72.548599,54.838062 
	C69.772018,52.278225 69.616585,49.081711 72.212692,46.439938 
	C74.945976,43.658566 77.915710,44.437176 80.524544,47.080444 
	C83.801529,50.400688 87.153908,53.647182 90.402473,56.994682 
	C96.338722,63.111729 96.759529,61.607304 90.235809,68.208633 
z"/>
<path fill="#49505A" opacity="1.000000" stroke="none" 
	d="
M86.156487,115.931427 
	C85.276825,120.990143 84.234840,125.853981 82.881584,130.629623 
	C82.616493,131.565170 81.220444,132.577881 80.204681,132.757980 
	C79.567596,132.870972 78.350990,131.640778 77.947418,130.759872 
	C77.000130,128.692139 76.385147,126.472176 75.265511,123.247879 
	C74.256050,126.399284 73.702110,128.633865 72.797623,130.716187 
	C72.408249,131.612610 71.192055,132.861801 70.529930,132.762375 
	C69.515717,132.610077 68.114075,131.598160 67.821808,130.657516 
	C66.348778,125.916725 65.182060,121.080765 63.653763,115.320572 
	C71.592911,115.879799 67.438919,123.096252 71.321808,125.501526 
	C71.796356,124.061729 72.225159,122.209854 73.021111,120.532173 
	C73.586998,119.339439 74.647728,118.381477 75.487595,117.318733 
	C76.397957,118.309135 77.536690,119.175293 78.160378,120.321663 
	C78.924866,121.726822 79.258438,123.366409 80.752563,124.996857 
	C81.203201,122.933777 81.763046,120.887062 82.075150,118.803230 
	C82.418076,116.513542 83.103058,114.884644 86.156487,115.931427 
z"/>
<path fill="#484F59" opacity="1.000000" stroke="none" 
	d="
M102.684113,121.157288 
	C103.403130,118.203651 100.806000,114.268135 106.093567,113.165344 
	C106.415611,115.264801 106.677383,116.971321 106.936081,118.657791 
	C113.472710,119.680580 115.510300,121.792587 114.977730,126.932762 
	C114.442131,132.102142 108.502136,135.165253 104.078651,132.415497 
	C103.324188,131.946503 102.815735,130.588348 102.748161,129.602921 
	C102.566422,126.952888 102.684753,124.282265 102.684113,121.157288 
M108.982773,129.641891 
	C109.630325,127.974472 110.636436,126.331032 110.750290,124.627937 
	C110.796326,123.939369 108.893494,123.120514 107.877518,122.360947 
	C107.346565,122.654961 106.815613,122.948967 106.284653,123.242981 
	C106.907051,125.418831 107.529457,127.594673 108.982773,129.641891 
z"/>
<path fill="#484F59" opacity="1.000000" stroke="none" 
	d="
M59.836189,132.010925 
	C54.487286,133.526215 52.034538,132.322021 50.792454,127.945442 
	C49.215157,122.387718 51.351849,115.972313 55.268898,115.135765 
	C58.646194,114.414467 61.233395,115.889954 62.178215,119.236809 
	C63.425514,123.655106 63.690372,128.071686 59.836189,132.010925 
M57.391220,118.496284 
	C54.184593,119.925034 52.725784,127.047226 55.438019,128.882309 
	C55.947140,129.226776 58.614857,127.840508 58.645916,127.176224 
	C58.772396,124.470886 58.261063,121.735725 57.391220,118.496284 
z"/>
<path fill="#4D545E" opacity="1.000000" stroke="none" 
	d="
M95.157280,127.733337 
	C93.941116,127.841209 93.143791,127.948135 92.346474,128.055069 
	C92.291962,128.397354 92.237457,128.739639 92.182945,129.081940 
	C94.366402,129.533310 96.549858,129.984695 99.118553,130.515701 
	C98.179886,134.759323 94.831741,133.385315 92.585678,133.026855 
	C88.274803,132.338837 87.269897,128.912018 87.677673,125.146751 
	C88.096573,121.278809 90.601234,119.091110 94.437363,119.377609 
	C98.850456,119.707207 99.814102,123.009270 99.930077,127.329567 
	C98.357841,127.475029 96.966988,127.603722 95.157280,127.733337 
z"/>
<path fill="#3E4650" opacity="1.000000" stroke="none" 
	d="
M40.940495,121.298416 
	C39.465420,120.893135 38.353893,120.652885 37.242371,120.412636 
	C37.236366,120.005066 37.230362,119.597496 37.224358,119.189926 
	C39.576302,117.871361 41.928246,116.552803 45.423908,114.593040 
	C45.423908,120.736595 45.505627,125.774513 45.330467,130.803497 
	C45.305908,131.508682 44.022388,132.170044 43.321629,132.851685 
	C42.766743,132.185684 41.794186,131.557907 41.729118,130.847061 
	C41.444016,127.732323 41.421688,124.593521 40.940495,121.298416 
z"/>
<path fill="#3D444F" opacity="1.000000" stroke="none" 
	d="
M68.277374,65.339752 
	C63.957310,68.133362 60.704987,67.868599 59.324242,64.620316 
	C58.031284,61.578548 58.438297,58.722717 61.727871,57.067898 
	C64.465073,55.690945 69.318016,57.788296 70.208115,61.037407 
	C70.513451,62.151947 69.139267,63.726589 68.277374,65.339752 
z"/>
<path fill="#F0F0F1" opacity="1.000000" stroke="none" 
	d="
M108.567314,129.706207 
	C107.529457,127.594673 106.907051,125.418831 106.284653,123.242981 
	C106.815613,122.948967 107.346565,122.654961 107.877518,122.360947 
	C108.893494,123.120514 110.796326,123.939369 110.750290,124.627937 
	C110.636436,126.331032 109.630325,127.974472 108.567314,129.706207 
z"/>
<path fill="#E7E7E9" opacity="1.000000" stroke="none" 
	d="
M57.688007,118.753922 
	C58.261063,121.735725 58.772396,124.470886 58.645916,127.176224 
	C58.614857,127.840508 55.947140,129.226776 55.438019,128.882309 
	C52.725784,127.047226 54.184593,119.925034 57.688007,118.753922 
z"/>
</svg>