<svg version="1.1" id="Layer_1" xmlns="http://www.w3.org/2000/svg" xmlns:xlink="http://www.w3.org/1999/xlink" x="0px" y="0px"
	 width="100%" viewBox="0 0 150 150" enable-background="new 0 0 150 150" xml:space="preserve">
<path fill="#F5C546" opacity="1.000000" stroke="none" 
	d="
M90.000000,151.000000 
	C60.024597,151.000000 30.549194,151.000000 1.036896,151.000000 
	C1.036896,101.066315 1.036896,51.132587 1.036896,1.099432 
	C50.891846,1.099432 100.783958,1.099432 150.838043,1.099432 
	C150.838043,50.999577 150.838043,100.999741 150.838043,151.000000 
	C130.799606,151.000000 110.649803,151.000000 90.000000,151.000000 
M26.636135,36.569950 
	C27.428083,37.232067 28.220032,37.894188 29.456556,38.821369 
	C29.615656,38.888119 29.774755,38.954865 29.598734,39.602440 
	C30.113310,40.985420 30.627884,42.368397 31.337976,44.276852 
	C32.846886,42.492771 33.673965,41.514862 34.818089,40.339355 
	C34.818089,40.339355 35.038010,40.036648 35.537216,39.708729 
	C36.095139,38.889019 36.653057,38.069309 37.899166,37.117592 
	C39.019699,36.895287 40.140232,36.672985 42.581234,36.188709 
	C39.957340,34.578907 38.501926,33.685986 37.063671,32.124634 
	C37.847244,27.676441 37.847244,27.676441 34.437138,26.900291 
	C33.283581,27.612150 32.130028,28.324007 30.237333,28.957090 
	C29.254965,28.903805 28.272598,28.850519 27.192362,28.826233 
	C27.192362,28.826233 27.157673,28.730234 27.013840,28.275019 
	C26.689247,27.886587 26.364655,27.498156 26.040060,27.109724 
	C25.774319,27.614401 25.508577,28.119080 24.704866,28.940294 
	C23.771477,29.639631 22.838089,30.338968 21.904701,31.038305 
	C22.016998,31.420591 22.129297,31.802879 22.241596,32.185165 
	C23.515205,32.185165 24.788816,32.185165 26.022612,32.900459 
	C26.336163,33.948338 26.649714,34.996216 26.636135,36.569950 
M115.197403,67.742554 
	C115.235641,68.326988 115.273888,68.911415 115.119339,70.294579 
	C115.119339,72.861832 115.119339,75.429092 115.119339,77.983871 
	C129.939743,77.671227 135.369888,74.430214 133.898621,66.654091 
	C132.602783,59.805180 128.634644,56.536819 115.360313,58.774445 
	C115.360313,61.112419 115.360313,63.543388 115.226685,66.414032 
	C115.226685,66.414032 115.292213,66.870155 115.197403,67.742554 
M68.740753,64.447960 
	C67.811417,63.030155 66.882072,61.612350 65.221535,59.948524 
	C64.516869,59.556580 63.844341,59.085289 63.102600,58.784878 
	C55.197376,55.583233 51.219971,58.103523 51.179142,66.307449 
	C51.166012,68.945473 50.778137,71.648590 51.247562,74.195511 
	C51.505234,75.593536 53.191837,76.728195 54.234150,77.981606 
	C54.822742,76.653618 55.411339,75.325638 56.507778,73.422287 
	C58.276817,73.832619 60.045860,74.242943 61.709370,75.175636 
	C61.914162,75.451691 62.118958,75.727745 62.494156,76.367844 
	C62.994690,76.571831 63.495224,76.775818 64.757828,77.059700 
	C65.448952,76.761528 66.711548,76.510353 66.740540,76.157730 
	C66.966850,73.405838 66.956039,70.634460 67.214279,67.335876 
	C67.759102,66.589966 68.303917,65.844055 68.740753,64.447960 
M77.820259,83.857590 
	C78.863602,84.955093 79.906952,86.052605 80.970245,87.785973 
	C80.992813,88.421852 81.015388,89.057732 80.324013,89.950012 
	C79.785660,90.897667 78.813698,91.831146 78.782204,92.795364 
	C78.625710,97.585197 78.584724,102.389549 78.816574,107.173592 
	C78.872658,108.330917 80.118004,109.430603 80.816467,110.556801 
	C81.842072,109.525673 83.624977,108.570221 83.737137,107.447815 
	C83.977760,105.039795 84.567650,103.680084 87.660400,104.436577 
	C88.660675,106.451225 89.660957,108.465866 90.591270,110.339600 
	C92.216705,109.921486 93.855896,109.499832 95.495087,109.078178 
	C95.010277,108.906281 94.525459,108.734383 94.040649,108.562492 
	C94.388672,105.375641 94.736694,102.188797 95.177368,98.300865 
	C96.137138,92.629112 92.003021,91.215935 88.116608,89.039703 
	C88.733765,85.449364 89.350914,81.859016 90.540482,77.785240 
	C88.547134,72.273567 86.700790,66.700951 84.458336,61.292568 
	C83.888947,59.919296 82.067909,58.223717 80.806702,58.211166 
	C79.501427,58.198177 77.650703,59.781235 76.956284,61.136425 
	C74.426262,66.073792 72.279922,71.207748 69.995651,76.252808 
	C73.774712,80.866806 75.070869,74.737740 77.848465,75.595673 
	C77.881653,78.098846 77.914841,80.602020 77.820259,83.857590 
M46.026085,92.477364 
	C44.676018,95.237671 43.325954,97.997971 41.689190,101.344452 
	C35.799862,88.833359 36.596447,88.900093 30.446943,90.722679 
	C30.446943,95.894348 30.257893,101.198524 30.586224,106.470482 
	C30.663681,107.714180 32.483181,108.849388 33.501297,110.034500 
	C33.948795,109.712929 34.396294,109.391365 34.843788,109.069794 
	C35.004940,105.948280 35.166092,102.826767 35.327240,99.705254 
	C36.987137,101.242889 37.651760,102.948410 38.677074,104.398987 
	C39.537781,105.616692 40.818951,106.537216 41.913963,107.589310 
	C42.976101,106.472679 44.100300,105.407700 45.084049,104.225822 
	C46.212765,102.869774 47.216972,101.410080 48.413250,100.894226 
	C48.292976,103.638016 48.172703,106.381805 48.034218,109.541046 
	C49.982960,109.454025 51.368866,109.392143 52.894966,109.323997 
	C52.894966,103.595161 52.894966,98.291382 53.045959,92.319870 
	C52.990734,91.870010 52.935505,91.420143 53.031158,90.613869 
	C50.555008,89.574600 48.105518,88.666183 46.026085,92.477364 
M39.257603,78.052147 
	C42.791420,77.610184 47.367916,78.012512 47.960819,73.417450 
	C48.466702,69.496819 47.462742,65.311562 46.650600,61.340736 
	C46.452389,60.371590 44.478001,59.488201 43.161724,59.091751 
	C41.292149,58.528641 39.277016,58.444134 37.321934,58.170448 
	C31.837959,57.402748 30.838671,58.279755 30.932447,63.794724 
	C30.971947,66.117828 31.078396,68.440178 31.092634,70.763252 
	C31.137291,78.048759 31.125914,78.048828 39.257603,78.052147 
M99.079765,68.294975 
	C101.349663,71.100365 103.400482,74.136696 105.996063,76.598732 
	C107.050781,77.599182 109.303375,77.604797 110.983047,77.518776 
	C111.502281,77.492188 112.353035,75.657433 112.326088,74.670380 
	C112.204399,70.213036 111.984322,65.742279 111.424316,61.323933 
	C111.277847,60.168354 109.783234,59.183651 108.907768,58.120472 
	C108.135185,59.128540 106.934509,60.041527 106.684837,61.165730 
	C106.250481,63.121452 106.403107,65.207542 106.309647,67.238976 
	C103.263725,65.064148 101.468582,62.511883 99.370636,60.239143 
	C98.476952,59.271015 96.950157,58.887302 95.711075,58.238007 
	C95.159691,59.452400 94.193642,60.646370 94.132637,61.884926 
	C93.928085,66.037399 93.907829,70.213310 94.132828,74.363129 
	C94.193901,75.489548 95.368790,76.555573 96.032463,77.649315 
	C96.716499,76.597160 97.766785,75.620415 98.002441,74.475937 
	C98.398628,72.551773 98.276985,70.520988 99.079765,68.294975 
M60.454285,95.930229 
	C58.733105,100.283569 57.011925,104.636917 54.739208,110.385246 
	C59.306618,108.582611 62.472683,106.360382 65.646416,106.349380 
	C68.931839,106.337990 72.224693,108.471779 75.514297,109.667259 
	C75.884087,109.313866 76.253883,108.960472 76.623672,108.607086 
	C74.105782,102.732933 71.795769,96.750298 68.847610,91.100662 
	C68.401413,90.245598 64.778038,90.415932 63.020771,91.112373 
	C61.948879,91.537186 61.635201,93.875145 60.454285,95.930229 
M110.051468,107.432007 
	C112.006897,108.402939 113.962326,109.373871 115.917747,110.344803 
	C116.276985,110.001450 116.636223,109.658104 116.995461,109.314758 
	C113.093384,102.970276 106.886848,96.649040 116.996254,90.500420 
	C109.867264,87.921967 108.841484,95.080544 104.372177,97.034195 
	C104.203072,94.564461 104.061432,92.495895 103.903473,90.188995 
	C102.250412,90.188995 100.861198,90.188995 99.317703,90.188995 
	C99.317703,96.660423 99.317703,102.887657 99.317703,109.237671 
	C101.034096,109.237671 102.419106,109.237671 103.409416,109.237671 
	C104.237274,106.749428 104.925774,104.680031 106.040527,101.329437 
	C107.846825,103.872978 108.845901,105.279831 110.051468,107.432007 
M128.375397,86.287094 
	C128.959305,85.735847 129.543228,85.184601 130.127151,84.633354 
	C129.786499,84.383347 129.445831,84.133331 129.105164,83.883324 
	C128.699921,84.666252 128.294678,85.449173 128.375397,86.287094 
z"/>
<path fill="#F2EEE7" opacity="1.000000" stroke="none" 
	d="
M38.810013,78.054855 
	C31.125914,78.048828 31.137291,78.048759 31.092634,70.763252 
	C31.078396,68.440178 30.971947,66.117828 30.932447,63.794724 
	C30.838671,58.279755 31.837959,57.402748 37.321934,58.170448 
	C39.277016,58.444134 41.292149,58.528641 43.161724,59.091751 
	C44.478001,59.488201 46.452389,60.371590 46.650600,61.340736 
	C47.462742,65.311562 48.466702,69.496819 47.960819,73.417450 
	C47.367916,78.012512 42.791420,77.610184 38.810013,78.054855 
z"/>
<path fill="#323034" opacity="1.000000" stroke="none" 
	d="
M48.275269,99.995407 
	C47.216972,101.410080 46.212765,102.869774 45.084049,104.225822 
	C44.100300,105.407700 42.976101,106.472679 41.913963,107.589310 
	C40.818951,106.537216 39.537781,105.616692 38.677074,104.398987 
	C37.651760,102.948410 36.987137,101.242889 35.327240,99.705254 
	C35.166092,102.826767 35.004940,105.948280 34.843788,109.069794 
	C34.396294,109.391365 33.948795,109.712929 33.501297,110.034500 
	C32.483181,108.849388 30.663681,107.714180 30.586224,106.470482 
	C30.257893,101.198524 30.446943,95.894348 30.446943,90.722679 
	C36.596447,88.900093 35.799862,88.833359 41.689190,101.344452 
	C43.325954,97.997971 44.676018,95.237671 46.605339,92.137253 
	C49.083153,91.521530 50.981716,91.245903 52.880276,90.970284 
	C52.935505,91.420143 52.990734,91.870010 52.675625,92.660812 
	C51.729202,93.305176 50.627571,93.669456 50.654613,93.903046 
	C51.196804,98.585800 51.869019,103.253502 52.515015,107.924248 
	C52.048485,107.986038 51.581959,108.047829 51.115433,108.109619 
	C50.168709,105.404884 49.221989,102.700142 48.275269,99.995407 
z"/>
<path fill="#F9F5ED" opacity="1.000000" stroke="none" 
	d="
M98.726479,68.415016 
	C98.276985,70.520988 98.398628,72.551773 98.002441,74.475937 
	C97.766785,75.620415 96.716499,76.597160 96.032471,77.649315 
	C95.368790,76.555573 94.193901,75.489548 94.132828,74.363129 
	C93.907829,70.213310 93.928085,66.037399 94.132637,61.884926 
	C94.193642,60.646370 95.159691,59.452400 95.711075,58.238007 
	C96.950157,58.887302 98.476952,59.271015 99.370636,60.239143 
	C101.468582,62.511883 103.263725,65.064148 106.309647,67.238976 
	C106.403107,65.207542 106.250481,63.121452 106.684837,61.165730 
	C106.934509,60.041527 108.135185,59.128540 108.907768,58.120472 
	C109.783234,59.183651 111.277847,60.168354 111.424316,61.323933 
	C111.984322,65.742279 112.204399,70.213036 112.326088,74.670380 
	C112.353035,75.657433 111.502281,77.492188 110.983047,77.518776 
	C109.303375,77.604797 107.050781,77.599182 105.996063,76.598732 
	C103.400482,74.136696 101.349663,71.100365 98.726479,68.415016 
z"/>
<path fill="#383432" opacity="1.000000" stroke="none" 
	d="
M60.717628,95.642014 
	C61.635201,93.875145 61.948879,91.537186 63.020771,91.112373 
	C64.778038,90.415932 68.401413,90.245598 68.847610,91.100662 
	C71.795769,96.750298 74.105782,102.732933 76.623672,108.607086 
	C76.253883,108.960472 75.884087,109.313866 75.514297,109.667259 
	C72.224693,108.471779 68.931839,106.337990 65.646416,106.349380 
	C62.472683,106.360382 59.306618,108.582611 54.739208,110.385246 
	C57.011925,104.636917 58.733105,100.283569 60.717628,95.642014 
z"/>
<path fill="#F9F6ED" opacity="1.000000" stroke="none" 
	d="
M115.360313,65.974358 
	C115.360313,63.543388 115.360313,61.112419 115.360313,58.774445 
	C128.634644,56.536819 132.602783,59.805180 133.898621,66.654091 
	C135.369888,74.430214 129.939743,77.671227 115.119339,77.983871 
	C115.119339,75.429092 115.119339,72.861832 115.584290,69.817894 
	C117.301468,69.264313 118.553680,69.187424 119.867935,69.402283 
	C120.232956,70.137360 120.535934,70.580696 120.899620,71.414970 
	C122.126068,72.518127 123.784706,74.104591 124.364578,73.777664 
	C126.064087,72.819489 128.104416,71.306046 128.555756,69.620399 
	C129.005905,67.939232 128.250671,65.281166 127.038231,63.947414 
	C124.637283,61.306202 121.182747,62.076405 120.070961,65.291473 
	C119.916725,66.027962 119.842163,66.450233 119.428070,66.854858 
	C118.410622,66.807663 117.732689,66.778107 116.875000,66.593948 
	C116.250267,66.284355 115.805290,66.129356 115.360313,65.974358 
z"/>
<path fill="#F5F2E9" opacity="1.000000" stroke="none" 
	d="
M77.702232,74.650032 
	C75.070869,74.737740 73.774712,80.866806 69.995651,76.252808 
	C72.279922,71.207748 74.426262,66.073792 76.956284,61.136425 
	C77.650703,59.781235 79.501427,58.198177 80.806702,58.211166 
	C82.067909,58.223717 83.888947,59.919296 84.458336,61.292568 
	C86.700790,66.700951 88.547134,72.273567 89.923004,77.957825 
	C88.858162,78.171638 88.410812,78.212852 87.571960,78.151093 
	C85.831879,77.989220 84.483284,77.930336 83.097885,77.493851 
	C83.005455,76.363831 82.949844,75.611397 82.947235,74.514008 
	C82.699562,73.127090 82.398880,72.085136 81.849594,71.016769 
	C81.600983,70.990364 81.102219,70.971886 80.834831,70.944672 
	C80.391335,70.950493 80.215233,70.983528 79.756065,71.014030 
	C79.284424,71.018768 79.095848,71.026031 78.594559,71.172760 
	C78.220909,72.213356 78.159981,73.114494 77.980408,74.162071 
	C77.861755,74.308510 77.702232,74.650032 77.702232,74.650032 
z"/>
<path fill="#332F37" opacity="1.000000" stroke="none" 
	d="
M109.948227,107.059341 
	C108.845901,105.279831 107.846825,103.872978 106.040527,101.329437 
	C104.925774,104.680031 104.237274,106.749428 103.409416,109.237671 
	C102.419106,109.237671 101.034096,109.237671 99.317703,109.237671 
	C99.317703,102.887657 99.317703,96.660423 99.317703,90.188995 
	C100.861198,90.188995 102.250412,90.188995 103.903473,90.188995 
	C104.061432,92.495895 104.203072,94.564461 104.372177,97.034195 
	C108.841484,95.080544 109.867264,87.921967 116.996254,90.500420 
	C106.886848,96.649040 113.093384,102.970276 116.995461,109.314758 
	C116.636223,109.658104 116.276985,110.001450 115.917747,110.344803 
	C113.962326,109.373871 112.006897,108.402939 109.948227,107.059341 
z"/>
<path fill="#353436" opacity="1.000000" stroke="none" 
	d="
M87.988922,89.702415 
	C92.003021,91.215935 96.137138,92.629112 94.771240,98.643387 
	C93.225510,98.651833 92.085907,98.317741 90.918289,97.633766 
	C90.300964,92.927460 87.108315,95.321884 84.655434,95.085724 
	C83.884285,96.442924 83.421463,97.712845 82.958641,98.982758 
	C84.294205,99.061157 85.629761,99.139565 87.305374,99.122345 
	C88.107872,99.086853 88.570335,99.146988 89.275429,99.400467 
	C90.127159,100.404449 90.736252,101.215088 91.345345,102.025726 
	C89.962669,102.662247 88.579994,103.298775 87.197319,103.935295 
	C84.567650,103.680084 83.977760,105.039795 83.737137,107.447815 
	C83.624977,108.570221 81.842072,109.525673 80.816467,110.556801 
	C80.118004,109.430603 78.872658,108.330917 78.816574,107.173592 
	C78.584724,102.389549 78.625710,97.585197 78.782204,92.795364 
	C78.813698,91.831146 79.785660,90.897667 81.068764,89.905060 
	C82.870796,89.810318 83.928078,89.760529 85.311798,89.779648 
	C86.077324,89.796532 86.516411,89.744492 87.213387,89.742981 
	C87.643829,89.763145 87.816376,89.732780 87.988922,89.702415 
z"/>
<path fill="#F3F0EE" opacity="1.000000" stroke="none" 
	d="
M62.323750,76.003799 
	C62.118958,75.727745 61.914162,75.451691 61.756866,74.540421 
	C60.357647,73.008507 58.910931,72.111816 57.464214,71.215126 
	C56.976120,72.142632 56.488026,73.070145 55.999931,73.997650 
	C55.411339,75.325638 54.822742,76.653618 54.234150,77.981606 
	C53.191837,76.728195 51.505234,75.593536 51.247562,74.195511 
	C50.778137,71.648590 51.166012,68.945473 51.179142,66.307449 
	C51.219971,58.103523 55.197376,55.583233 63.102600,58.784878 
	C63.844341,59.085289 64.516869,59.556580 65.595856,60.382568 
	C65.976746,61.231567 65.983330,61.646523 65.687759,61.917324 
	C64.593910,62.204533 63.802193,62.635902 62.666161,62.901821 
	C59.809689,62.341492 56.809677,60.579815 55.842243,65.164749 
	C55.797413,65.903831 55.922409,66.466690 56.303936,67.255035 
	C57.398216,67.763367 58.235970,68.046204 59.192665,68.492233 
	C59.860264,68.622971 60.408916,68.590523 61.236229,68.347031 
	C61.992508,66.426102 62.470135,64.716232 63.258320,62.853497 
	C64.067528,63.118954 64.566170,63.537281 65.114075,64.237495 
	C65.444267,65.005920 65.725212,65.492462 65.929398,66.207443 
	C66.241249,66.913612 66.629845,67.391357 67.018448,67.869095 
	C66.956039,70.634460 66.966850,73.405838 66.740540,76.157730 
	C66.711548,76.510353 65.448952,76.761528 64.208382,76.835709 
	C63.213875,76.409073 62.768814,76.206436 62.323750,76.003799 
z"/>
<path fill="#F3C537" opacity="1.000000" stroke="none" 
	d="
M88.052765,89.371063 
	C87.816376,89.732780 87.643829,89.763145 87.141388,89.502167 
	C86.341393,88.879440 85.871284,88.548035 85.401184,88.216637 
	C85.262573,88.714668 85.123970,89.212700 84.985359,89.710732 
	C83.928078,89.760529 82.870796,89.810318 81.425735,89.776855 
	C81.015388,89.057732 80.992813,88.421852 81.282608,87.363861 
	C82.027893,86.242737 82.460815,85.543724 82.940018,84.440826 
	C83.052231,82.680115 83.118156,81.323288 83.525879,79.971313 
	C85.232933,79.402138 86.598198,78.828102 87.963455,78.254074 
	C88.410812,78.212852 88.858162,78.171638 89.636795,78.199547 
	C89.350914,81.859016 88.733765,85.449364 88.052765,89.371063 
z"/>
<path fill="#3C3834" opacity="1.000000" stroke="none" 
	d="
M90.946304,97.983658 
	C92.085907,98.317741 93.225510,98.651833 94.724915,98.993927 
	C94.736694,102.188797 94.388672,105.375641 94.040649,108.562492 
	C94.525459,108.734383 95.010277,108.906281 95.495087,109.078178 
	C93.855896,109.499832 92.216705,109.921486 90.591270,110.339600 
	C89.660957,108.465866 88.660675,106.451225 87.428864,104.185936 
	C88.579994,103.298775 89.962669,102.662247 91.345345,102.025726 
	C90.736252,101.215088 90.127159,100.404449 89.450882,99.168312 
	C89.904564,98.489761 90.425430,98.236710 90.946304,97.983658 
z"/>
<path fill="#403429" opacity="1.000000" stroke="none" 
	d="
M48.344257,100.444817 
	C49.221989,102.700142 50.168709,105.404884 51.115433,108.109619 
	C51.581959,108.047829 52.048485,107.986038 52.515015,107.924248 
	C51.869019,103.253502 51.196804,98.585800 50.654613,93.903046 
	C50.627571,93.669456 51.729202,93.305176 52.600128,92.994675 
	C52.894966,98.291382 52.894966,103.595161 52.894966,109.323997 
	C51.368866,109.392143 49.982960,109.454025 48.034218,109.541046 
	C48.172703,106.381805 48.292976,103.638016 48.344257,100.444817 
z"/>
<path fill="#F8F2DC" opacity="1.000000" stroke="none" 
	d="
M26.062428,32.185165 
	C24.788816,32.185165 23.515205,32.185165 22.241596,32.185165 
	C22.129297,31.802879 22.016998,31.420591 21.904701,31.038305 
	C22.838089,30.338968 23.771477,29.639631 25.289101,28.830006 
	C26.301447,28.723225 26.729559,28.726728 27.157673,28.730232 
	C27.157673,28.730234 27.192362,28.826233 27.421972,29.061691 
	C28.676497,29.938929 29.701412,30.580709 30.597910,31.372150 
	C30.248850,31.669910 30.048212,31.841419 29.642904,32.045731 
	C29.418230,32.055126 28.989094,32.189709 28.741779,32.173199 
	C28.494463,32.156689 28.003044,32.229263 27.730644,32.179329 
	C27.274199,32.144058 27.090155,32.158722 26.694527,32.128803 
	C26.482943,32.084225 26.062428,32.185165 26.062428,32.185165 
z"/>
<path fill="#F6EFDF" opacity="1.000000" stroke="none" 
	d="
M37.046513,32.793068 
	C38.501926,33.685986 39.957340,34.578907 42.581234,36.188709 
	C40.140232,36.672985 39.019699,36.895287 37.220852,37.059731 
	C35.837112,36.978516 35.131691,36.955162 34.346478,36.722878 
	C34.266689,36.513950 34.168694,36.079430 34.357010,35.868637 
	C34.787064,35.153572 35.028793,34.649300 35.497200,34.017326 
	C35.901138,33.590176 36.078407,33.290730 36.462700,32.978905 
	C36.669727,32.966526 37.046513,32.793068 37.046513,32.793068 
z"/>
<path fill="#705A34" opacity="1.000000" stroke="none" 
	d="
M34.501045,40.536953 
	C33.673965,41.514862 32.846886,42.492771 31.337976,44.276852 
	C30.627884,42.368397 30.113310,40.985420 30.007589,39.308800 
	C30.416445,39.015163 30.898157,39.010101 31.019688,39.137871 
	C31.282051,39.453148 31.428253,39.636375 31.967167,39.846649 
	C32.868237,39.884972 33.381966,39.891960 34.045898,40.059525 
	C34.196106,40.220100 34.501045,40.536953 34.501045,40.536953 
z"/>
<path fill="#A98B42" opacity="1.000000" stroke="none" 
	d="
M82.893730,84.844711 
	C82.460815,85.543724 82.027893,86.242737 81.272636,87.045929 
	C79.906952,86.052605 78.863602,84.955093 78.245010,83.503082 
	C78.897308,83.069283 79.124847,82.989983 79.440414,82.854568 
	C79.528450,82.798439 79.736977,82.804176 79.883179,83.033905 
	C80.439346,83.125938 80.849304,82.988243 81.379494,82.837334 
	C81.499733,82.824120 81.740471,82.848061 81.775726,83.149994 
	C82.171898,83.916191 82.532814,84.380447 82.893730,84.844711 
z"/>
<path fill="#F6F2EC" opacity="1.000000" stroke="none" 
	d="
M56.253853,73.709969 
	C56.488026,73.070145 56.976120,72.142632 57.464214,71.215126 
	C58.910931,72.111816 60.357647,73.008507 61.809631,74.279236 
	C60.045860,74.242943 58.276817,73.832619 56.253853,73.709969 
z"/>
<path fill="#E0CC51" opacity="1.000000" stroke="none" 
	d="
M37.055092,32.458851 
	C37.046513,32.793068 36.669727,32.966526 36.391994,32.642296 
	C35.735958,31.528927 35.357651,30.739794 34.976181,29.963120 
	C34.973019,29.975582 34.992466,29.965660 35.047970,29.612366 
	C35.015793,28.554056 34.928108,27.849039 34.840427,27.144022 
	C37.847244,27.676441 37.847244,27.676441 37.055092,32.458851 
z"/>
<path fill="#403429" opacity="1.000000" stroke="none" 
	d="
M52.955719,90.792076 
	C50.981716,91.245903 49.083153,91.521530 46.846657,91.869980 
	C48.105518,88.666183 50.555008,89.574600 52.955719,90.792076 
z"/>
<path fill="#ECE3D9" opacity="1.000000" stroke="none" 
	d="
M66.006157,65.979004 
	C65.725212,65.492462 65.444267,65.005920 65.396240,64.142281 
	C65.749413,63.197281 65.869659,62.629383 65.989906,62.061481 
	C65.983330,61.646523 65.976746,61.231567 65.961456,60.505577 
	C66.882072,61.612350 67.811417,63.030155 68.494705,64.791779 
	C67.501152,65.416725 66.753654,65.697861 66.006157,65.979004 
z"/>
<path fill="#9C8D3C" opacity="1.000000" stroke="none" 
	d="
M34.638783,27.022156 
	C34.928108,27.849039 35.015793,28.554056 34.762741,29.602179 
	C33.949959,29.628876 33.477913,29.312468 32.765800,28.996571 
	C32.525726,28.997078 32.045712,29.003944 31.779053,28.991882 
	C31.334541,28.985859 31.156691,28.991896 30.984997,29.005804 
	C30.991152,29.013678 30.976471,29.035866 30.976471,29.035866 
	C32.130028,28.324007 33.283581,27.612150 34.638783,27.022156 
z"/>
<path fill="#ABACA1" opacity="1.000000" stroke="none" 
	d="
M119.805901,69.110527 
	C118.553680,69.187424 117.301468,69.264313 115.680695,69.418533 
	C115.273888,68.911415 115.235641,68.326988 115.540619,67.321320 
	C116.274139,66.849571 116.664452,66.799057 117.054764,66.748543 
	C117.732689,66.778107 118.410622,66.807663 119.508377,67.224503 
	C119.887436,68.111366 119.846672,68.610947 119.805901,69.110527 
z"/>
<path fill="#876C34" opacity="1.000000" stroke="none" 
	d="
M30.898155,39.010101 
	C30.898157,39.010101 30.416445,39.015163 30.175150,39.018387 
	C29.774755,38.954865 29.615656,38.888119 29.238266,38.658867 
	C29.019976,38.496361 29.040684,38.437283 29.067268,37.982117 
	C29.058935,35.747871 29.024014,33.968792 28.989094,32.189709 
	C28.989094,32.189709 29.418230,32.055126 29.710320,32.439011 
	C30.300991,34.885300 30.599573,36.947701 30.898155,39.010101 
z"/>
<path fill="#595326" opacity="1.000000" stroke="none" 
	d="
M79.352386,82.910690 
	C79.124847,82.989983 78.897308,83.069283 78.308899,83.126884 
	C77.914841,80.602020 77.881653,78.098846 77.775345,75.122849 
	C77.702232,74.650032 77.861755,74.308510 78.176361,74.179092 
	C78.490974,74.049667 78.883354,74.020149 78.962845,74.057602 
	C79.042343,74.095047 79.154381,74.230446 79.098091,74.653549 
	C79.145332,77.687996 79.248856,80.299347 79.352386,82.910690 
z"/>
<path fill="#DFBB48" opacity="1.000000" stroke="none" 
	d="
M128.132416,86.259598 
	C128.294678,85.449173 128.699921,84.666252 129.105164,83.883316 
	C129.445831,84.133331 129.786499,84.383347 130.127151,84.633354 
	C129.543228,85.184601 128.959305,85.735847 128.132416,86.259598 
z"/>
<path fill="#79682C" opacity="1.000000" stroke="none" 
	d="
M34.426270,36.931805 
	C35.131691,36.955162 35.837112,36.978516 36.876755,37.125736 
	C36.653057,38.069309 36.095139,38.889019 35.119041,39.632774 
	C34.415428,39.290955 34.129990,39.025089 33.904175,38.444672 
	C34.117950,37.730686 34.272110,37.331245 34.426270,36.931805 
z"/>
<path fill="#AF915C" opacity="1.000000" stroke="none" 
	d="
M30.726326,31.222490 
	C29.701412,30.580709 28.676497,29.938929 27.470905,29.047192 
	C28.272598,28.850519 29.254965,28.903805 30.606903,28.996479 
	C30.976471,29.035866 30.991152,29.013678 30.981255,29.380188 
	C30.889679,30.238628 30.808002,30.730560 30.726326,31.222490 
z"/>
<path fill="#F6F2EC" opacity="1.000000" stroke="none" 
	d="
M65.929398,66.207443 
	C66.753654,65.697861 67.501152,65.416725 68.548691,65.116867 
	C68.303917,65.844055 67.759102,66.589966 67.116364,67.602486 
	C66.629845,67.391357 66.241249,66.913612 65.929398,66.207443 
z"/>
<path fill="#AF915C" opacity="1.000000" stroke="none" 
	d="
M27.085756,28.502625 
	C26.729559,28.726728 26.301447,28.723225 25.558084,28.671738 
	C25.508577,28.119080 25.774319,27.614401 26.040060,27.109724 
	C26.364655,27.498156 26.689247,27.886587 27.085756,28.502625 
z"/>
<path fill="#81693A" opacity="1.000000" stroke="none" 
	d="
M29.040684,38.437283 
	C29.040684,38.437283 29.019976,38.496361 29.015978,38.526333 
	C28.220032,37.894188 27.428083,37.232067 26.809900,36.293018 
	C26.983665,36.016087 26.966492,36.020004 27.206417,36.012184 
	C27.446342,36.004360 27.922377,36.063076 27.972855,36.397976 
	C28.362450,37.301010 28.701567,37.869148 29.040684,38.437283 
z"/>
<path fill="#706039" opacity="1.000000" stroke="none" 
	d="
M26.042519,32.542812 
	C26.062428,32.185165 26.482943,32.084225 26.730541,32.511505 
	C26.974257,33.965858 26.970375,34.992931 26.966492,36.020004 
	C26.966492,36.020004 26.983665,36.016087 26.973465,36.030090 
	C26.649714,34.996216 26.336163,33.948338 26.042519,32.542812 
z"/>
<path fill="#F6F2EC" opacity="1.000000" stroke="none" 
	d="
M62.408951,76.185822 
	C62.768814,76.206436 63.213875,76.409073 63.827347,76.795761 
	C63.495224,76.775818 62.994690,76.571831 62.408951,76.185822 
z"/>
<path fill="#D8D8D6" opacity="1.000000" stroke="none" 
	d="
M116.875000,66.593948 
	C116.664452,66.799057 116.274139,66.849571 115.588020,66.885117 
	C115.292213,66.870155 115.226685,66.414032 115.293503,66.194199 
	C115.805290,66.129356 116.250267,66.284355 116.875000,66.593948 
z"/>
<path fill="#705A34" opacity="1.000000" stroke="none" 
	d="
M33.844555,38.759220 
	C34.129990,39.025089 34.415428,39.290955 34.869438,39.796738 
	C35.038010,40.036648 34.818089,40.339355 34.659569,40.438156 
	C34.501045,40.536953 34.196106,40.220100 34.041801,39.775337 
	C33.873875,39.140636 33.860252,38.950695 33.873669,38.765335 
	C33.900711,38.769913 33.844555,38.759220 33.844555,38.759220 
z"/>
<path fill="#F1C44E" opacity="1.000000" stroke="none" 
	d="
M120.150627,64.977249 
	C121.182747,62.076405 124.637283,61.306202 127.038231,63.947414 
	C128.250671,65.281166 129.005905,67.939232 128.555756,69.620399 
	C128.104416,71.306046 126.064087,72.819489 124.364578,73.777664 
	C123.784706,74.104591 122.126068,72.518127 120.968628,71.099365 
	C121.013214,69.965706 121.049500,69.538589 121.405579,69.076874 
	C122.473289,68.719055 123.221214,68.395836 123.780746,67.815521 
	C122.776604,67.349586 121.960869,67.140732 121.083359,66.638138 
	C120.731270,65.888687 120.440948,65.432968 120.150627,64.977249 
z"/>
<path fill="#454741" opacity="1.000000" stroke="none" 
	d="
M121.085793,69.111473 
	C121.049500,69.538589 121.013214,69.965706 120.907913,70.708427 
	C120.535934,70.580696 120.232956,70.137360 119.867935,69.402283 
	C119.846672,68.610947 119.887436,68.111366 119.847900,67.242142 
	C119.842163,66.450233 119.916725,66.027962 120.070961,65.291473 
	C120.440948,65.432968 120.731270,65.888687 121.056122,66.878693 
	C121.090660,67.412971 121.164116,67.891808 121.122253,68.195297 
	C121.082191,68.703018 121.083992,68.907249 121.085793,69.111473 
z"/>
<path fill="#684430" opacity="1.000000" stroke="none" 
	d="
M82.940018,84.440826 
	C82.532814,84.380447 82.171898,83.916191 81.863991,82.723633 
	C81.988983,79.659500 82.060966,77.323669 82.323692,74.958130 
	C82.514435,74.928421 82.894226,74.858971 82.894226,74.858971 
	C82.949844,75.611397 83.005455,76.363831 83.048859,77.843231 
	C83.085785,79.035622 83.134933,79.501045 83.184082,79.966461 
	C83.118156,81.323288 83.052231,82.680115 82.940018,84.440826 
z"/>
<path fill="#F5C546" opacity="1.000000" stroke="none" 
	d="
M83.525879,79.971313 
	C83.134933,79.501045 83.085785,79.035622 83.085663,78.220825 
	C84.483284,77.930336 85.831879,77.989220 87.571960,78.151093 
	C86.598198,78.828102 85.232933,79.402138 83.525879,79.971313 
z"/>
<path fill="#5D5E65" opacity="1.000000" stroke="none" 
	d="
M82.947235,74.514008 
	C82.894226,74.858971 82.514435,74.928421 82.251480,74.739716 
	C81.988525,74.551018 81.846870,74.112846 81.916725,73.732742 
	C82.023788,72.582817 82.060997,71.812996 82.098198,71.043182 
	C82.398880,72.085136 82.699562,73.127090 82.947235,74.514008 
z"/>
<path fill="#5C6967" opacity="1.000000" stroke="none" 
	d="
M78.883354,74.020149 
	C78.883354,74.020149 78.490974,74.049667 78.295013,74.032654 
	C78.159981,73.114494 78.220909,72.213356 78.635635,71.544563 
	C78.954071,72.524658 78.918709,73.272400 78.883354,74.020149 
z"/>
<path fill="#F6F2EC" opacity="1.000000" stroke="none" 
	d="
M78.962845,74.057602 
	C78.918709,73.272400 78.954071,72.524658 78.948349,71.405106 
	C79.095848,71.026031 79.284424,71.018768 79.742058,71.375946 
	C80.050400,72.461357 80.089699,73.182335 80.047943,73.966476 
	C79.966888,74.029640 79.850777,74.199211 79.675217,74.174469 
	C79.499657,74.149727 79.154381,74.230446 79.154381,74.230446 
	C79.154381,74.230446 79.042343,74.095047 78.962845,74.057602 
z"/>
<path fill="#5C5D79" opacity="1.000000" stroke="none" 
	d="
M80.128990,73.903313 
	C80.089699,73.182335 80.050400,72.461357 80.025116,71.378464 
	C80.215233,70.983528 80.391335,70.950493 80.793350,71.309937 
	C80.967033,72.432594 80.914818,73.162781 80.679672,73.925888 
	C80.496735,73.958824 80.128990,73.903313 80.128990,73.903313 
z"/>
<path fill="#E8E6E4" opacity="1.000000" stroke="none" 
	d="
M80.862602,73.892960 
	C80.914818,73.162781 80.967033,72.432594 81.060738,71.337151 
	C81.102219,70.971886 81.600983,70.990364 81.849594,71.016769 
	C82.060997,71.812996 82.023788,72.582817 81.737854,73.750244 
	C81.489128,74.147865 81.144608,74.251450 81.087357,74.151398 
	C81.030113,74.051353 80.862602,73.892960 80.862602,73.892960 
z"/>
<path fill="#F0BF42" opacity="1.000000" stroke="none" 
	d="
M90.918289,97.633759 
	C90.425430,98.236710 89.904564,98.489761 89.208237,98.974976 
	C88.570335,99.146988 88.107872,99.086853 86.911484,99.061028 
	C85.772949,97.729698 85.368355,96.364067 84.963760,94.998428 
	C87.108315,95.321884 90.300964,92.927460 90.918289,97.633759 
z"/>
<path fill="#3C3834" opacity="1.000000" stroke="none" 
	d="
M84.655434,95.085724 
	C85.368355,96.364067 85.772949,97.729698 86.571442,99.156654 
	C85.629761,99.139565 84.294205,99.061157 82.958641,98.982758 
	C83.421463,97.712845 83.884285,96.442924 84.655434,95.085724 
z"/>
<path fill="#F5C546" opacity="1.000000" stroke="none" 
	d="
M85.311798,89.779648 
	C85.123970,89.212700 85.262573,88.714668 85.401184,88.216637 
	C85.871284,88.548035 86.341393,88.879440 86.883492,89.451645 
	C86.516411,89.744492 86.077324,89.796532 85.311798,89.779648 
z"/>
<path fill="#F0CA58" opacity="1.000000" stroke="none" 
	d="
M59.073719,68.329041 
	C58.235970,68.046204 57.398216,67.763367 56.337952,66.914650 
	C56.080978,65.895355 56.046524,65.441940 56.012070,64.988525 
	C56.809677,60.579815 59.809689,62.341492 62.642803,62.894611 
	C62.963760,63.052853 62.947762,63.006367 62.947762,63.006367 
	C62.470135,64.716232 61.992508,66.426102 60.941383,68.208054 
	C59.936497,68.296440 59.505108,68.312737 59.073719,68.329041 
z"/>
<path fill="#8C8EA2" opacity="1.000000" stroke="none" 
	d="
M65.687759,61.917324 
	C65.869659,62.629383 65.749413,63.197281 65.346985,63.860397 
	C64.566170,63.537281 64.067528,63.118954 63.258320,62.853497 
	C62.947762,63.006367 62.963760,63.052853 62.987122,63.060062 
	C63.802193,62.635902 64.593910,62.204533 65.687759,61.917324 
z"/>
<path fill="#F6F2EC" opacity="1.000000" stroke="none" 
	d="
M59.192665,68.492233 
	C59.505108,68.312737 59.936497,68.296440 60.662727,68.419113 
	C60.408916,68.590523 59.860264,68.622971 59.192665,68.492233 
z"/>
<path fill="#F6F2EC" opacity="1.000000" stroke="none" 
	d="
M55.842243,65.164749 
	C56.046524,65.441940 56.080978,65.895355 56.081421,66.689156 
	C55.922409,66.466690 55.797413,65.903831 55.842243,65.164749 
z"/>
<path fill="#DFBB48" opacity="1.000000" stroke="none" 
	d="
M30.597912,31.372150 
	C30.808002,30.730560 30.889679,30.238628 30.975098,29.372314 
	C31.156691,28.991896 31.334541,28.985859 31.773727,29.391399 
	C32.096840,30.865248 32.158623,31.927513 32.165527,33.417599 
	C31.933710,35.835384 31.756767,37.825348 31.579824,39.815315 
	C31.428253,39.636375 31.282051,39.453148 31.019688,39.137871 
	C30.599573,36.947701 30.300991,34.885300 29.934994,32.429619 
	C30.048212,31.841419 30.248850,31.669910 30.597912,31.372150 
z"/>
<path fill="#F2C642" opacity="1.000000" stroke="none" 
	d="
M29.067268,37.982117 
	C28.701567,37.869148 28.362450,37.301010 28.000862,36.013912 
	C27.986607,34.273052 27.994825,33.251160 28.003044,32.229263 
	C28.003044,32.229263 28.494463,32.156689 28.741779,32.173199 
	C29.024014,33.968792 29.058935,35.747871 29.067268,37.982117 
z"/>
<path fill="#D3B642" opacity="1.000000" stroke="none" 
	d="
M27.730644,32.179329 
	C27.994825,33.251160 27.986607,34.273052 27.950382,35.679012 
	C27.922377,36.063076 27.446342,36.004360 27.206417,36.012184 
	C26.970375,34.992931 26.974257,33.965858 26.942127,32.556084 
	C27.090155,32.158722 27.274199,32.144058 27.730644,32.179329 
z"/>
<path fill="#E6BE4E" opacity="1.000000" stroke="none" 
	d="
M33.005871,28.996059 
	C33.477913,29.312468 33.949959,29.628876 34.707237,29.955471 
	C34.992466,29.965660 34.973019,29.975582 34.952255,30.382854 
	C35.044502,31.908426 35.157513,33.026726 35.270527,34.145027 
	C35.028793,34.649300 34.787064,35.153572 34.122818,35.847412 
	C33.700306,36.036983 33.231327,36.002247 33.187969,35.623199 
	C33.045033,34.489212 32.945454,33.734280 32.896118,32.583450 
	C32.966194,31.123722 32.986034,30.059891 33.005871,28.996059 
z"/>
<path fill="#835C29" opacity="1.000000" stroke="none" 
	d="
M35.497200,34.017326 
	C35.157513,33.026726 35.044502,31.908426 34.955421,30.370392 
	C35.357651,30.739794 35.735958,31.528927 36.184967,32.654671 
	C36.078407,33.290730 35.901138,33.590176 35.497200,34.017326 
z"/>
<path fill="#E5C34B" opacity="1.000000" stroke="none" 
	d="
M33.231327,36.002247 
	C33.231327,36.002247 33.700306,36.036983 33.934502,36.058205 
	C34.168694,36.079430 34.266689,36.513950 34.346481,36.722878 
	C34.272110,37.331245 34.117950,37.730686 33.904175,38.444672 
	C33.844555,38.759220 33.900711,38.769913 33.628502,38.587269 
	C33.314632,37.603832 33.272980,36.803040 33.231327,36.002247 
z"/>
<path fill="#79682C" opacity="1.000000" stroke="none" 
	d="
M33.187969,35.623199 
	C33.272980,36.803040 33.314632,37.603832 33.601456,38.582691 
	C33.860252,38.950695 33.873875,39.140636 33.891594,39.614761 
	C33.381966,39.891960 32.868237,39.884972 31.967167,39.846649 
	C31.756767,37.825348 31.933710,35.835384 32.321579,33.413975 
	C32.532505,32.982533 32.845875,32.979343 32.845875,32.979343 
	C32.945454,33.734280 33.045033,34.489212 33.187969,35.623199 
z"/>
<path fill="#5D532D" opacity="1.000000" stroke="none" 
	d="
M80.047943,73.966476 
	C80.128990,73.903313 80.496735,73.958824 80.679672,73.925888 
	C80.862602,73.892960 81.030113,74.051353 81.032883,74.570633 
	C81.110184,77.676788 81.184723,80.263664 81.259254,82.850540 
	C80.849304,82.988243 80.439346,83.125938 79.962189,82.607162 
	C79.880241,79.366852 79.865509,76.783035 79.850777,74.199211 
	C79.850777,74.199211 79.966888,74.029640 80.047943,73.966476 
z"/>
<path fill="#E5C34B" opacity="1.000000" stroke="none" 
	d="
M81.379494,82.837326 
	C81.184723,80.263664 81.110184,77.676788 81.090134,74.670685 
	C81.144608,74.251450 81.489128,74.147865 81.667999,74.130356 
	C81.846870,74.112846 81.988525,74.551018 82.060738,74.769424 
	C82.060966,77.323669 81.988983,79.659500 81.828735,82.421692 
	C81.740471,82.848061 81.499733,82.824120 81.379494,82.837326 
z"/>
<path fill="#FABF60" opacity="1.000000" stroke="none" 
	d="
M79.675217,74.174469 
	C79.865509,76.783035 79.880241,79.366852 79.815979,82.377426 
	C79.736977,82.804176 79.528450,82.798439 79.440414,82.854568 
	C79.248856,80.299347 79.145332,77.687996 79.098091,74.653549 
	C79.154381,74.230446 79.499657,74.149727 79.675217,74.174469 
z"/>
<path fill="#794A3B" opacity="1.000000" stroke="none" 
	d="
M32.896118,32.583450 
	C32.845875,32.979343 32.532505,32.982533 32.376453,32.986156 
	C32.158623,31.927513 32.096840,30.865248 32.040386,29.403461 
	C32.045712,29.003944 32.525726,28.997078 32.765800,28.996569 
	C32.986034,30.059891 32.966194,31.123722 32.896118,32.583450 
z"/>
<path fill="#B78A54" opacity="1.000000" stroke="none" 
	d="
M121.164116,67.891808 
	C121.164116,67.891808 121.090660,67.412971 121.117889,67.172424 
	C121.960869,67.140732 122.776604,67.349586 123.429977,67.797668 
	C122.566452,67.988533 121.865280,67.940170 121.164116,67.891808 
z"/>
<path fill="#A78820" opacity="1.000000" stroke="none" 
	d="
M121.122253,68.195297 
	C121.865280,67.940170 122.566452,67.988533 123.618378,68.054749 
	C123.221214,68.395836 122.473289,68.719055 121.405579,69.076874 
	C121.083992,68.907249 121.082191,68.703018 121.122253,68.195297 
z"/>
</svg>