<svg version="1.1" id="Layer_1" xmlns="http://www.w3.org/2000/svg" xmlns:xlink="http://www.w3.org/1999/xlink" x="0px" y="0px"
	 width="100%" viewBox="0 0 338 319" enable-background="new 0 0 338 319" xml:space="preserve">
<path fill="#FFFFFF" opacity="1.000000" stroke="none" 
	d="
M1.000005,284.000000 
	C1.000000,190.312439 1.000000,96.624878 1.223688,2.366237 
	C1.725775,1.595574 1.909983,1.330522 2.000000,1.000000 
	C113.687561,1.000000 225.375122,1.000000 337.634216,1.223390 
	C338.403778,1.726962 338.668518,1.911369 339.000000,2.000000 
	C339.000000,107.932861 339.000000,213.865723 339.000000,319.899292 
	C226.333389,319.899292 113.666710,319.899292 1.000000,319.899292 
	C1.000000,308.589661 1.000000,297.263489 1.280623,285.643829 
	C5.458274,289.442383 9.627364,293.313965 13.173152,297.690582 
	C16.489773,301.784363 19.584772,302.730438 24.018621,299.455292 
	C26.387951,297.705139 29.273481,296.618195 31.996902,295.388947 
	C46.361897,288.905396 60.617210,282.145996 75.211441,276.223663 
	C79.473862,274.493988 85.287300,273.667572 89.379875,275.172913 
	C94.563339,277.079498 98.185745,277.109680 101.929375,273.349030 
	C103.920326,271.349030 105.862045,269.300018 108.103470,267.159119 
	C111.968170,263.377838 115.555359,259.710510 119.434845,255.891327 
	C123.481415,251.883621 127.235687,248.027740 131.296997,244.026642 
	C150.811462,224.681793 170.038284,205.501556 189.221558,186.277832 
	C215.809387,159.633926 242.364487,132.957336 269.219727,106.082199 
	C273.042419,102.258003 276.578979,98.646355 280.418335,94.902603 
	C284.801880,90.521812 288.882629,86.273117 293.261810,81.862106 
	C294.875336,80.427101 296.293488,79.243553 297.486023,77.864861 
	C300.948975,73.861534 300.991333,68.603996 297.237183,64.818176 
	C277.895782,45.313576 258.509705,25.852554 239.020477,6.495876 
	C234.286285,1.793886 229.922409,2.012447 225.039246,6.594265 
	C223.591919,7.952288 222.312744,9.489549 220.638519,11.054052 
	C216.451263,15.122646 212.581985,19.081865 208.452179,23.209522 
	C204.424438,27.218687 200.657196,31.059416 196.585037,35.027412 
	C171.821472,59.630619 147.344528,84.088310 122.909737,108.588036 
	C101.767731,129.786224 80.673561,151.032120 59.340008,172.448181 
	C55.147362,176.621841 51.172951,180.604263 46.896042,184.792328 
	C42.728970,188.988815 38.864395,192.979614 34.710052,197.138947 
	C33.605881,198.135437 32.794689,198.966568 31.976564,199.790817 
	C26.104933,205.706436 25.952988,206.962662 28.981438,214.578156 
	C29.662516,216.290817 29.977688,218.650375 29.359201,220.298569 
	C24.714077,232.677139 20.163202,245.115219 14.837323,257.206299 
	C10.793058,266.387817 5.652671,275.086487 1.000005,284.000000 
z"/>
<path fill="#EA5B26" opacity="1.000000" stroke="none" 
	d="
M1.000005,284.250000 
	C5.652671,275.086487 10.793058,266.387817 14.837323,257.206299 
	C20.163202,245.115219 24.714077,232.677139 29.359201,220.298569 
	C29.977688,218.650375 29.662516,216.290817 28.981438,214.578156 
	C25.952988,206.962662 26.104933,205.706436 31.976564,199.790817 
	C32.794689,198.966568 33.605881,198.135437 35.051235,197.189484 
	C37.207054,198.319061 38.850925,199.447342 40.238926,200.832077 
	C61.106522,221.650635 81.928978,242.514420 102.806297,263.323181 
	C104.303978,264.815918 106.144737,265.964508 107.825974,267.273102 
	C105.862045,269.300018 103.920326,271.349030 101.929375,273.349030 
	C98.185745,277.109680 94.563339,277.079498 89.379875,275.172913 
	C85.287300,273.667572 79.473862,274.493988 75.211441,276.223663 
	C60.617210,282.145996 46.361897,288.905396 31.996902,295.388947 
	C29.273481,296.618195 26.387951,297.705139 24.018621,299.455292 
	C19.584772,302.730438 16.489773,301.784363 13.173152,297.690582 
	C9.627364,293.313965 5.458274,289.442383 1.280623,285.175171 
	C1.000000,285.000000 1.000000,284.500000 1.000005,284.250000 
z"/>
<path fill="#EEEEEE" opacity="1.000000" stroke="none" 
	d="
M1.500000,1.000000 
	C1.909983,1.330522 1.725775,1.595574 1.223688,1.897579 
	C1.000000,1.666667 1.000000,1.333333 1.500000,1.000000 
z"/>
<path fill="#EEEEEE" opacity="1.000000" stroke="none" 
	d="
M339.000000,1.500000 
	C338.668518,1.911369 338.403778,1.726962 338.102875,1.223390 
	C338.333344,1.000000 338.666656,1.000000 339.000000,1.500000 
z"/>
<path fill="#F7923F" opacity="1.000000" stroke="none" 
	d="
M59.558243,172.256927 
	C80.673561,151.032120 101.767731,129.786224 122.909737,108.588036 
	C147.344528,84.088310 171.821472,59.630619 196.731842,35.337620 
	C219.904129,58.265022 242.617905,81.016281 265.367554,103.731636 
	C266.389954,104.752518 267.737488,105.447815 268.933594,106.294746 
	C242.364487,132.957336 215.809387,159.633926 189.221558,186.277832 
	C170.038284,205.501556 150.811462,224.681793 131.106796,243.743744 
	C128.156387,241.124512 125.711739,238.634506 123.248749,236.162781 
	C102.020454,214.858963 80.788857,193.558426 59.558243,172.256927 
M215.485764,128.979996 
	C221.522919,119.152878 226.605438,108.893265 228.591537,97.422729 
	C230.544434,86.143982 225.084885,75.358749 211.852432,77.099152 
	C204.238983,78.100510 196.326920,79.752640 189.464005,83.028313 
	C161.398575,96.423950 139.441864,117.262474 121.055206,141.990570 
	C111.181908,155.269135 102.445473,169.282227 100.529190,186.232452 
	C99.353874,196.628479 104.074463,204.633606 115.745728,205.006470 
	C126.299431,205.343628 135.731140,201.327148 144.556732,196.456757 
	C173.803619,180.316940 196.914474,157.503769 215.485764,128.979996 
z"/>
<path fill="#312C2B" opacity="1.000000" stroke="none" 
	d="
M59.340004,172.448181 
	C80.788857,193.558426 102.020454,214.858963 123.248749,236.162781 
	C125.711739,238.634506 128.156387,241.124512 130.799744,243.888962 
	C127.235687,248.027740 123.481415,251.883621 119.163139,255.685516 
	C115.412163,252.471115 112.220085,249.315826 109.039032,246.149445 
	C88.424202,225.629868 67.811760,205.107880 47.198540,184.586670 
	C51.172951,180.604263 55.147362,176.621841 59.340004,172.448181 
z"/>
<path fill="#F6913F" opacity="1.000000" stroke="none" 
	d="
M292.963409,82.024429 
	C288.882629,86.273117 284.801880,90.521812 280.286743,94.588791 
	C256.139130,70.618416 232.425934,46.829746 208.712708,23.041082 
	C212.581985,19.081865 216.451263,15.122646 220.785950,11.357399 
	C244.035416,34.406273 266.811371,57.269295 289.634399,80.085251 
	C290.512573,80.963188 291.843475,81.388313 292.963409,82.024429 
z"/>
<path fill="#2B292A" opacity="1.000000" stroke="none" 
	d="
M208.452179,23.209518 
	C232.425934,46.829746 256.139130,70.618416 279.983948,94.720894 
	C276.578979,98.646355 273.042419,102.258003 269.219727,106.082199 
	C267.737488,105.447815 266.389954,104.752518 265.367554,103.731636 
	C242.617905,81.016281 219.904129,58.265022 197.036774,35.210350 
	C200.657196,31.059416 204.424438,27.218687 208.452179,23.209518 
z"/>
<path fill="#F7923F" opacity="1.000000" stroke="none" 
	d="
M46.896042,184.792328 
	C67.811760,205.107880 88.424202,225.629868 109.039032,246.149445 
	C112.220085,249.315826 115.412163,252.471115 118.870842,255.837372 
	C115.555359,259.710510 111.968170,263.377838 108.103477,267.159119 
	C106.144737,265.964508 104.303978,264.815918 102.806297,263.323181 
	C81.928978,242.514420 61.106522,221.650635 40.238926,200.832077 
	C38.850925,199.447342 37.207054,198.319061 35.341011,197.020966 
	C38.864395,192.979614 42.728970,188.988815 46.896042,184.792328 
z"/>
<path fill="#EA5C26" opacity="1.000000" stroke="none" 
	d="
M293.261810,81.862106 
	C291.843475,81.388313 290.512573,80.963188 289.634399,80.085251 
	C266.811371,57.269295 244.035416,34.406273 221.103928,11.248024 
	C222.312744,9.489549 223.591919,7.952288 225.039246,6.594265 
	C229.922409,2.012447 234.286285,1.793886 239.020477,6.495876 
	C258.509705,25.852554 277.895782,45.313576 297.237183,64.818176 
	C300.991333,68.603996 300.948975,73.861534 297.486023,77.864861 
	C296.293488,79.243553 294.875336,80.427101 293.261810,81.862106 
z"/>
<path fill="#C34427" opacity="1.000000" stroke="none" 
	d="
M215.307465,129.298141 
	C196.914474,157.503769 173.803619,180.316940 144.556732,196.456757 
	C135.731140,201.327148 126.299431,205.343628 115.745728,205.006470 
	C104.074463,204.633606 99.353874,196.628479 100.529190,186.232452 
	C102.445473,169.282227 111.181908,155.269135 121.055206,141.990570 
	C139.441864,117.262474 161.398575,96.423950 189.464005,83.028313 
	C196.326920,79.752640 204.238983,78.100510 211.852432,77.099152 
	C225.084885,75.358749 230.544434,86.143982 228.591537,97.422729 
	C226.605438,108.893265 221.522919,119.152878 215.307465,129.298141 
z"/>
</svg>