<svg version="1.1" id="Layer_1" xmlns="http://www.w3.org/2000/svg" xmlns:xlink="http://www.w3.org/1999/xlink" x="0px" y="0px"
	 width="100%" viewBox="0 0 129 129" enable-background="new 0 0 129 129" xml:space="preserve">
<path fill="#8EE002" opacity="1.000000" stroke="none" 
	d="
M1.000000,86.000000 
	C1.000000,72.645775 1.000000,59.291546 1.264763,45.261963 
	C5.077255,40.302837 7.190190,35.495235 8.382010,29.964743 
	C9.840329,23.197584 13.213475,22.475904 18.480312,27.020470 
	C19.004463,27.472742 19.760252,27.656559 20.582937,28.047941 
	C20.910618,25.491976 20.966368,23.307325 21.496702,21.244696 
	C23.165281,14.755047 26.415312,13.852651 31.045103,18.486506 
	C37.045422,24.492094 43.011772,30.531652 49.018105,36.531200 
	C58.514240,46.016605 72.326729,46.046322 81.986282,36.533978 
	C88.390732,30.227135 94.639587,23.762308 101.043358,17.454756 
	C104.293732,14.253222 106.934937,14.666790 108.626244,18.900276 
	C109.751549,21.717022 110.029137,24.872440 110.695938,27.921001 
	C119.541687,22.251820 121.095665,23.213499 123.852722,33.765083 
	C124.981201,38.083939 127.897186,41.935730 130.000000,46.000000 
	C130.000000,58.687561 130.000000,71.375122 129.769958,84.780060 
	C124.528320,95.175262 116.978363,101.028374 105.819054,102.193977 
	C93.450653,103.485878 84.265465,98.392281 76.866653,88.761810 
	C76.809753,88.540588 76.775467,88.085197 77.155540,88.057617 
	C80.784935,88.032623 81.136963,86.432953 79.929062,83.839561 
	C77.236435,78.058449 72.756645,74.706009 66.402878,74.253036 
	C60.222927,73.812454 54.018394,77.746895 51.358479,83.156334 
	C49.733543,86.460938 50.208729,88.218010 54.199841,88.328232 
	C54.175617,88.573006 54.036953,89.044991 53.782112,89.254883 
	C45.983463,99.398674 36.195984,103.738983 23.640902,102.079239 
	C13.130165,100.689735 6.447639,94.311653 1.000000,86.000000 
M9.091150,67.427658 
	C9.095941,68.925865 9.053119,70.425987 9.113087,71.921982 
	C9.574098,83.422508 18.482651,92.186630 29.628172,92.126823 
	C40.954750,92.066048 49.681870,83.469704 50.026295,71.882904 
	C50.159740,67.393784 50.160145,62.887753 49.936462,58.403629 
	C49.435970,48.370384 41.758427,40.446102 31.569111,39.219559 
	C22.168976,38.088020 12.385886,44.579651 10.052711,54.094364 
	C9.080809,58.057793 9.373481,62.331318 9.091150,67.427658 
M80.837296,74.091545 
	C82.912949,85.657631 91.783356,92.910851 102.831940,92.076302 
	C113.559334,91.266006 121.344421,82.654999 121.618240,71.201012 
	C121.713684,67.208649 121.764061,63.206505 121.601730,59.218323 
	C121.137474,47.812714 112.057182,39.084476 100.883247,39.169220 
	C89.978561,39.251919 81.128525,47.970055 80.729980,59.198734 
	C80.564812,63.852432 80.730309,68.517868 80.837296,74.091545 
z"/>
<path fill="#50C801" opacity="1.000000" stroke="none" 
	d="
M1.000000,86.468651 
	C6.447639,94.311653 13.130165,100.689735 23.640902,102.079239 
	C36.195984,103.738983 45.983463,99.398674 53.892708,89.600410 
	C56.335136,97.848221 60.917900,101.394844 67.860130,100.037292 
	C73.843521,98.867249 75.963547,94.359962 76.923553,88.983040 
	C84.265465,98.392281 93.450653,103.485878 105.819054,102.193977 
	C116.978363,101.028374 124.528320,95.175262 129.769958,85.248718 
	C130.000000,93.687561 130.000000,102.375130 129.658661,111.624611 
	C126.216476,121.214287 119.485077,126.508781 111.000000,130.000000 
	C80.645775,130.000000 50.291542,130.000000 19.375322,129.658691 
	C13.129631,126.843628 7.876185,123.831963 4.671831,118.195068 
	C3.485719,116.108543 2.226097,114.063797 1.000000,112.000000 
	C1.000000,103.645767 1.000000,95.291534 1.000000,86.468651 
z"/>
<path fill="#50C801" opacity="1.000000" stroke="none" 
	d="
M130.000000,45.531349 
	C127.897186,41.935730 124.981201,38.083939 123.852722,33.765083 
	C121.095665,23.213499 119.541687,22.251820 110.695938,27.921001 
	C110.029137,24.872440 109.751549,21.717022 108.626244,18.900276 
	C106.934937,14.666790 104.293732,14.253222 101.043358,17.454756 
	C94.639587,23.762308 88.390732,30.227135 81.986282,36.533978 
	C72.326729,46.046322 58.514240,46.016605 49.018105,36.531200 
	C43.011772,30.531652 37.045422,24.492094 31.045103,18.486506 
	C26.415312,13.852651 23.165281,14.755047 21.496702,21.244696 
	C20.966368,23.307325 20.910618,25.491976 20.582937,28.047941 
	C19.760252,27.656559 19.004463,27.472742 18.480312,27.020470 
	C13.213475,22.475904 9.840329,23.197584 8.382010,29.964743 
	C7.190190,35.495235 5.077255,40.302837 1.264763,44.793304 
	C1.000000,36.645767 1.000000,28.291536 1.341274,19.375227 
	C4.146734,13.121616 7.185427,7.888097 12.805898,4.672155 
	C14.888988,3.480244 16.936346,2.225881 19.000000,1.000000 
	C49.354229,1.000000 79.708458,1.000000 110.646790,1.344765 
	C112.010170,1.928988 112.794632,2.152882 113.567940,2.410282 
	C122.232712,5.294374 126.518387,12.272162 130.000000,20.000000 
	C130.000000,28.354233 130.000000,36.708466 130.000000,45.531349 
z"/>
<path fill="#FDFEFC" opacity="1.000000" stroke="none" 
	d="
M130.000000,19.530624 
	C126.518387,12.272162 122.232712,5.294374 113.567940,2.410282 
	C112.794632,2.152882 112.010170,1.928988 111.115448,1.344765 
	C117.259232,1.000000 123.518463,1.000000 130.000000,1.000000 
	C130.000000,7.018606 130.000000,13.039927 130.000000,19.530624 
z"/>
<path fill="#FDFEFC" opacity="1.000000" stroke="none" 
	d="
M111.469376,130.000000 
	C119.485077,126.508781 126.216476,121.214287 129.658661,112.093262 
	C130.000000,117.927879 130.000000,123.855751 130.000000,130.000000 
	C123.981300,130.000000 117.960022,130.000000 111.469376,130.000000 
z"/>
<path fill="#FDFEFC" opacity="1.000000" stroke="none" 
	d="
M18.530293,1.000000 
	C16.936346,2.225881 14.888988,3.480244 12.805898,4.672155 
	C7.185427,7.888097 4.146734,13.121616 1.341274,18.906574 
	C1.000000,13.074268 1.000000,7.148537 1.000000,1.000000 
	C6.684937,1.000000 12.372760,1.000000 18.530293,1.000000 
z"/>
<path fill="#FDFEFC" opacity="1.000000" stroke="none" 
	d="
M1.000000,112.469711 
	C2.226097,114.063797 3.485719,116.108543 4.671831,118.195068 
	C7.876185,123.831963 13.129631,126.843628 18.906666,129.658691 
	C13.074267,130.000000 7.148534,130.000000 1.000000,130.000000 
	C1.000000,124.315063 1.000000,118.627235 1.000000,112.469711 
z"/>
<path fill="#FBFDF9" opacity="1.000000" stroke="none" 
	d="
M9.091145,66.945747 
	C9.373481,62.331318 9.080809,58.057793 10.052711,54.094364 
	C12.385886,44.579651 22.168976,38.088020 31.569111,39.219559 
	C41.758427,40.446102 49.435970,48.370384 49.936462,58.403629 
	C50.160145,62.887753 50.159740,67.393784 50.026295,71.882904 
	C49.681870,83.469704 40.954750,92.066048 29.628172,92.126823 
	C18.482651,92.186630 9.574098,83.422508 9.113087,71.921982 
	C9.053119,70.425987 9.095941,68.925865 9.091145,66.945747 
M25.773157,62.716896 
	C24.883997,63.208706 23.224339,63.708233 23.229177,64.191086 
	C23.263796,67.644997 23.121269,71.238632 24.029205,74.512131 
	C25.261684,78.955727 29.706255,81.184120 34.300682,80.339439 
	C38.906719,79.492630 41.807762,76.743256 42.117443,71.994438 
	C42.387192,67.857895 42.413429,63.670479 42.102039,59.539101 
	C41.617115,53.105293 35.634285,49.665607 29.576763,52.219189 
	C31.904001,56.590061 31.310108,60.157978 25.773157,62.716896 
z"/>
<path fill="#FBFDF9" opacity="1.000000" stroke="none" 
	d="
M80.791367,73.634750 
	C80.730309,68.517868 80.564812,63.852432 80.729980,59.198734 
	C81.128525,47.970055 89.978561,39.251919 100.883247,39.169220 
	C112.057182,39.084476 121.137474,47.812714 121.601730,59.218323 
	C121.764061,63.206505 121.713684,67.208649 121.618240,71.201012 
	C121.344421,82.654999 113.559334,91.266006 102.831940,92.076302 
	C91.783356,92.910851 82.912949,85.657631 80.791367,73.634750 
M107.322647,73.245956 
	C106.911827,67.436089 106.501007,61.626228 105.862099,55.163174 
	C102.678474,51.386971 98.952164,49.805691 95.741096,51.316738 
	C94.513107,55.512085 94.550797,59.544151 92.635841,60.989944 
	C89.440308,63.402580 89.003838,65.915504 88.937477,69.358147 
	C88.812706,75.830589 90.572075,78.944138 95.687424,80.198891 
	C100.815788,81.456833 104.287094,79.548325 107.322647,73.245956 
z"/>
<path fill="#FDC201" opacity="1.000000" stroke="none" 
	d="
M54.224064,88.083466 
	C50.208729,88.218010 49.733543,86.460938 51.358479,83.156334 
	C54.018394,77.746895 60.222927,73.812454 66.402878,74.253036 
	C72.756645,74.706009 77.236435,78.058449 79.929062,83.839561 
	C81.136963,86.432953 80.784935,88.032623 76.790321,88.135086 
	C68.754318,90.562973 61.482304,90.282364 54.224064,88.083466 
M70.474136,81.309677 
	C69.521957,77.155464 64.764473,75.227409 61.784050,77.905296 
	C61.042389,78.571671 60.383957,79.969467 60.569885,80.843277 
	C60.743290,81.658241 62.092220,82.793266 62.920475,82.790573 
	C65.297722,82.782867 67.673340,82.270073 70.474136,81.309677 
z"/>
<path fill="#F28200" opacity="1.000000" stroke="none" 
	d="
M54.199841,88.328232 
	C61.482304,90.282364 68.754318,90.562973 76.410248,88.162674 
	C76.775467,88.085197 76.809753,88.540588 76.866653,88.761810 
	C75.963547,94.359962 73.843521,98.867249 67.860130,100.037292 
	C60.917900,101.394844 56.335136,97.848221 54.147545,89.390518 
	C54.036953,89.044991 54.175617,88.573006 54.199841,88.328232 
z"/>
<path fill="#4E4E4E" opacity="1.000000" stroke="none" 
	d="
M26.152775,62.572433 
	C31.310108,60.157978 31.904001,56.590061 29.576763,52.219189 
	C35.634285,49.665607 41.617115,53.105293 42.102039,59.539101 
	C42.413429,63.670479 42.387192,67.857895 42.117443,71.994438 
	C41.807762,76.743256 38.906719,79.492630 34.300682,80.339439 
	C29.706255,81.184120 25.261684,78.955727 24.029205,74.512131 
	C23.121269,71.238632 23.263796,67.644997 23.229177,64.191086 
	C23.224339,63.708233 24.883997,63.208706 26.152775,62.572433 
z"/>
<path fill="#4C4C4C" opacity="1.000000" stroke="none" 
	d="
M106.974014,73.993599 
	C104.287094,79.548325 100.815788,81.456833 95.687424,80.198891 
	C90.572075,78.944138 88.812706,75.830589 88.937477,69.358147 
	C89.003838,65.915504 89.440308,63.402580 92.635841,60.989944 
	C94.550797,59.544151 94.513107,55.512085 95.741096,51.316738 
	C98.952164,49.805691 102.678474,51.386971 105.975876,55.969360 
	C106.384438,62.514896 106.679230,68.254250 106.974014,73.993599 
z"/>
<path fill="#616161" opacity="1.000000" stroke="none" 
	d="
M107.148331,73.619781 
	C106.679230,68.254250 106.384438,62.514896 106.089920,56.295952 
	C106.501007,61.626228 106.911827,67.436089 107.148331,73.619781 
z"/>
<path fill="#FFE544" opacity="1.000000" stroke="none" 
	d="
M70.261871,81.632736 
	C67.673340,82.270073 65.297722,82.782867 62.920475,82.790573 
	C62.092220,82.793266 60.743290,81.658241 60.569885,80.843277 
	C60.383957,79.969467 61.042389,78.571671 61.784050,77.905296 
	C64.764473,75.227409 69.521957,77.155464 70.261871,81.632736 
z"/>
</svg>