<svg version="1.1" id="Layer_1" xmlns="http://www.w3.org/2000/svg" xmlns:xlink="http://www.w3.org/1999/xlink" x="0px" y="0px"
	 width="100%" viewBox="0 0 720 720" enable-background="new 0 0 720 720" xml:space="preserve">
<path fill="#000000" opacity="1.000000" stroke="none" 
	d="
M492.624878,411.932129 
	C490.658875,411.442566 489.064270,411.075012 486.939880,410.585358 
	C486.939880,417.151062 486.942139,423.379059 486.939362,429.607056 
	C486.934998,439.258118 486.939880,439.273560 478.062836,442.933167 
	C473.603607,444.771545 469.087067,446.473236 464.651367,448.365479 
	C461.305176,449.792969 459.610229,449.100555 459.618805,445.194733 
	C459.678589,417.898956 459.151764,390.588226 459.903351,363.312286 
	C460.443604,343.706390 478.942841,325.753357 498.768890,323.760132 
	C521.003235,321.524719 541.601562,335.019470 547.209656,355.495514 
	C555.929810,387.334167 532.313232,415.865021 499.354309,413.255402 
	C497.216644,413.086151 495.114746,412.465027 492.624878,411.932129 
M514.837097,354.569580 
	C506.636047,349.580719 498.687561,349.977997 492.341400,355.694000 
	C487.084381,360.429077 485.385132,369.173828 488.410461,375.923523 
	C491.262360,382.286316 497.606293,386.210938 504.836060,385.908600 
	C512.409973,385.591919 517.640076,381.789001 520.525085,374.820587 
	C523.433594,367.795441 521.679138,361.171173 514.837097,354.569580 
z"/>
<path fill="#000000" opacity="1.000000" stroke="none" 
	d="
M260.770294,323.418030 
	C263.099640,323.448334 265.537170,322.461700 266.605591,324.698486 
	C267.749664,327.093689 265.193665,328.138550 263.888367,329.459686 
	C252.305954,341.183014 240.663132,352.846619 229.055557,364.545166 
	C228.137238,365.470673 227.349747,366.525970 226.145065,367.939026 
	C240.171188,382.726196 255.065720,396.489197 268.784180,411.318939 
	C266.331848,413.836823 264.399353,413.319031 262.650970,413.331268 
	C254.324509,413.389496 245.993256,413.200562 237.672470,413.424927 
	C234.022827,413.523376 231.355026,412.348450 228.888290,409.746002 
	C223.184769,403.728516 217.291534,397.890839 210.253708,392.402039 
	C210.253708,397.461151 210.111282,402.525543 210.297440,407.577789 
	C210.454849,411.850250 208.769516,413.608185 204.414917,413.411499 
	C198.930603,413.163849 193.422745,413.243134 187.931747,413.406433 
	C184.343567,413.513214 182.789825,412.134979 182.796417,408.467834 
	C182.860474,372.828949 182.864365,337.189941 182.823639,301.551025 
	C182.820541,298.833282 183.890610,297.207703 186.367996,296.215118 
	C192.546799,293.739594 198.662872,291.106659 204.852432,288.659058 
	C208.995224,287.020844 210.202591,287.855682 210.227005,292.580811 
	C210.302689,307.235687 210.252014,321.891235 210.250397,336.546509 
	C210.250183,338.516907 210.250351,340.487305 210.250351,343.173004 
	C215.100449,340.409821 218.375656,336.784210 221.166229,333.141357 
	C227.580322,324.768250 235.582779,321.614319 245.902969,322.975769 
	C250.660706,323.603394 255.542023,323.294250 260.770294,323.418030 
z"/>
<path fill="#000000" opacity="1.000000" stroke="none" 
	d="
M414.075806,355.071167 
	C421.089081,357.755920 427.800568,360.230103 434.467285,362.819489 
	C444.476105,366.707031 450.975739,373.846313 451.738251,384.639893 
	C452.427307,394.392639 447.272003,401.771515 439.337372,407.162323 
	C424.181610,417.459229 400.057129,414.996979 388.360687,402.015747 
	C387.915009,401.521118 387.458740,401.033173 387.049042,400.509491 
	C381.027802,392.812775 381.602173,390.632599 390.564575,387.057800 
	C392.264740,386.379639 394.022858,385.798004 395.625702,384.933502 
	C400.519928,382.293732 404.515869,381.796844 408.524323,387.095001 
	C411.910614,391.570831 418.282623,391.975220 422.039001,389.235413 
	C425.097260,387.004761 425.112122,384.655151 421.996826,382.510315 
	C419.469635,380.770386 416.440582,380.328766 413.565674,379.547638 
	C407.106903,377.792755 400.926605,375.480927 395.326447,371.697876 
	C379.253174,360.840088 379.142487,341.428070 395.144104,330.316986 
	C410.002655,319.999603 432.019073,321.667450 445.013489,334.121979 
	C446.211517,335.270233 447.365967,336.492432 448.368713,337.811066 
	C452.831055,343.679352 452.345520,345.442444 445.559204,348.301819 
	C443.413116,349.206024 441.185394,349.932678 439.090576,350.939392 
	C434.006500,353.382751 429.438232,354.838409 425.156403,349.040161 
	C422.871826,345.946442 418.784271,345.698853 415.001556,346.791809 
	C412.976929,347.376770 411.340393,348.601593 410.916687,350.768890 
	C410.487396,352.964935 411.987854,354.088287 414.075806,355.071167 
z"/>
<path fill="#000000" opacity="1.000000" stroke="none" 
	d="
M276.848267,363.368744 
	C281.551270,337.890778 298.001617,323.959351 323.297791,323.562408 
	C327.287567,323.499817 331.273773,323.233795 335.263458,323.136230 
	C338.757507,323.050720 340.381500,324.630005 338.989594,328.099823 
	C336.264587,334.892731 333.372589,341.618561 330.562317,348.377380 
	C329.305206,351.400635 326.610596,351.056519 324.166901,350.999969 
	C318.663391,350.872620 313.533020,351.745728 309.438049,355.819275 
	C305.986359,359.252869 304.089355,363.302124 304.118500,368.294922 
	C304.193329,381.112305 304.155334,393.930573 304.106842,406.748322 
	C304.083954,412.803955 303.542450,413.316162 297.569000,413.352783 
	C292.408783,413.384430 287.240845,413.182983 282.089996,413.403656 
	C277.900116,413.583130 276.580017,411.777069 276.629333,407.769928 
	C276.809540,393.123413 276.766602,378.474152 276.848267,363.368744 
z"/>
<path fill="#000000" opacity="1.000000" stroke="none" 
	d="
M375.124023,393.998535 
	C375.111237,398.995911 375.026642,403.494934 375.103790,407.991180 
	C375.167053,411.678101 373.781189,413.527679 369.805298,413.388672 
	C364.148163,413.190857 358.476196,413.224365 352.816132,413.372223 
	C349.263397,413.464996 347.689606,412.188690 347.700287,408.459351 
	C347.776733,381.805328 347.767792,355.150818 347.682953,328.496796 
	C347.671021,324.742798 349.355988,323.502594 352.855743,323.581360 
	C358.183716,323.701294 363.530487,323.846832 368.843231,323.536163 
	C373.775635,323.247742 375.204010,325.419189 375.174927,330.029083 
	C375.041382,351.184998 375.119843,372.342224 375.124023,393.998535 
z"/>
<path fill="#000000" opacity="1.000000" stroke="none" 
	d="
M348.679291,310.249573 
	C343.028809,302.107849 343.463379,293.161041 349.542328,287.269897 
	C355.516846,281.479950 364.904266,280.867554 371.505066,285.837158 
	C379.248413,291.666992 380.389282,302.685883 374.023621,310.162201 
	C367.494110,317.830933 357.175323,317.984863 348.679291,310.249573 
z"/>
</svg>