<?xml version="1.0" standalone="no"?>
<!DOCTYPE svg PUBLIC "-//W3C//DTD SVG 20010904//EN"
 "http://www.w3.org/TR/2001/REC-SVG-20010904/DTD/svg10.dtd">
<svg version="1.0" xmlns="http://www.w3.org/2000/svg"
 width="225.000000pt" height="225.000000pt" viewBox="0 0 225.000000 225.000000"
 preserveAspectRatio="xMidYMid meet">

<g transform="translate(0.000000,225.000000) scale(0.100000,-0.100000)"
fill="#000000" stroke="none">
<path d="M1030 1969 c-347 -40 -633 -290 -726 -634 -27 -98 -27 -322 0 -420
42 -155 122 -291 237 -401 157 -149 327 -222 540 -231 130 -6 215 5 329 44 72
24 78 25 155 13 166 -27 316 -8 344 42 14 25 13 31 -21 100 -20 40 -41 92 -48
116 -10 40 -9 46 24 105 130 233 144 535 36 774 -151 333 -505 533 -870 492z
m305 -129 c465 -146 677 -675 433 -1085 -49 -83 -53 -128 -19 -220 36 -98 36
-100 -35 -103 -34 -2 -92 4 -129 13 -89 20 -111 19 -183 -10 -89 -36 -231 -59
-323 -51 -108 9 -181 30 -289 83 -80 39 -109 61 -186 137 -76 77 -98 106 -137
186 -76 153 -99 288 -77 435 48 319 278 564 590 630 94 21 266 13 355 -15z"/>
<path d="M1013 1590 c-84 -28 -169 -105 -209 -192 -25 -54 -29 -75 -29 -148 0
-76 4 -93 33 -152 63 -129 179 -201 322 -201 143 0 259 72 322 201 30 59 33
76 33 152 0 76 -4 93 -32 151 -82 167 -266 246 -440 189z m217 -106 c47 -20
108 -80 131 -129 25 -55 25 -147 -2 -205 -54 -119 -183 -177 -311 -138 -45 13
-122 77 -143 118 -76 147 7 330 168 371 40 10 111 2 157 -17z"/>
<path d="M1053 1370 c-90 -54 -82 -206 12 -246 68 -28 142 -8 179 48 80 122
-66 274 -191 198z"/>
<path d="M994 760 c-49 -19 -32 -81 30 -113 63 -33 134 -34 200 -4 64 29 81
63 51 97 -21 23 -50 25 -85 5 -35 -20 -84 -18 -130 5 -22 11 -41 20 -42 19 -2
0 -13 -4 -24 -9z"/>
</g>
</svg>
