<svg version="1.1" id="Layer_1" xmlns="http://www.w3.org/2000/svg" xmlns:xlink="http://www.w3.org/1999/xlink" x="0px" y="0px"
	 width="100%" viewBox="0 0 1024 1024" enable-background="new 0 0 1024 1024" xml:space="preserve">
<path fill="#000000" opacity="1.000000" stroke="none" 
	d="
M823.127930,667.258301 
	C825.227783,672.777588 823.300720,676.730286 819.333496,679.947021 
	C780.537415,711.403809 739.563660,739.572632 694.976746,762.288879 
	C684.764343,767.491882 674.606079,772.801025 664.034973,778.261719 
	C665.591309,780.466736 667.957947,781.229492 670.183472,782.083069 
	C685.774597,788.062988 699.483826,784.100647 712.246765,774.319946 
	C722.542725,766.429810 731.900513,757.311707 743.429565,751.022522 
	C764.320923,739.626038 789.555908,741.522095 808.207397,756.339111 
	C817.200867,763.483582 825.887085,771.014343 834.861450,778.183594 
	C840.583435,782.754700 847.177856,785.286804 854.591431,785.768127 
	C860.757629,786.168579 865.079102,790.935791 864.815796,796.562317 
	C864.561279,801.998474 859.665833,806.341309 853.553040,806.288269 
	C843.430420,806.200500 834.356995,802.806274 825.895996,797.391174 
	C816.569519,791.422180 808.830078,783.553284 800.410156,776.498474 
	C791.912598,769.378601 782.584595,764.196594 771.090942,764.355042 
	C761.130554,764.492310 752.758545,768.817627 745.100952,774.708191 
	C737.313477,780.698608 729.801758,787.051941 721.942444,792.943787 
	C699.318359,809.904175 671.564209,809.990540 648.519653,793.695740 
	C638.574036,786.663269 630.150391,777.743896 619.817322,771.217285 
	C605.570618,762.218750 591.364685,761.955627 577.121887,771.094666 
	C569.523926,775.969910 562.889404,782.076843 555.983337,787.834778 
	C542.934875,798.714172 528.425232,805.986084 510.945953,805.202820 
	C495.651367,804.517517 482.863892,797.607239 471.167694,788.300232 
	C464.262024,782.805054 457.561432,777.033813 450.456512,771.811401 
	C437.510315,762.295471 424.596466,762.144714 410.908478,770.598999 
	C400.249054,777.182556 391.090942,785.779968 380.618317,792.631287 
	C356.058136,808.698853 331.537231,807.887390 306.771545,793.272949 
	C293.638519,785.523071 282.368042,775.292603 270.499908,765.897766 
	C261.508545,758.780090 253.211914,758.523743 243.583923,764.361511 
	C228.320618,773.616028 214.302673,784.717957 198.994766,793.860779 
	C191.294067,798.460022 183.562286,803.159790 174.137619,803.572205 
	C166.729813,803.896301 162.064850,800.800171 161.309570,794.680420 
	C160.566376,788.658752 164.964020,783.785217 172.127121,782.890076 
	C176.186417,782.382812 179.822815,780.848328 183.325180,778.865906 
	C198.290573,770.395081 211.685852,759.551575 226.250549,750.480225 
	C229.171875,748.660706 228.137970,746.795593 226.969681,744.615723 
	C222.014404,735.369690 217.035019,726.135193 212.209930,716.821106 
	C206.888672,706.549316 210.453323,699.736694 221.960663,698.890625 
	C243.373474,697.316162 264.817169,696.166382 286.242493,694.755981 
	C314.137848,692.919617 342.011536,690.690063 369.925873,689.227417 
	C388.707886,688.243164 407.458130,686.874573 426.223022,685.689392 
	C450.801208,684.136902 475.372009,682.467651 499.949188,680.899048 
	C522.377930,679.467407 544.812866,678.132812 567.241577,676.700500 
	C589.161377,675.300720 611.075928,673.820068 632.994202,672.396606 
	C647.115662,671.479492 661.240051,670.608643 675.362366,669.704590 
	C698.282715,668.237366 721.202942,666.768250 744.122131,665.284302 
	C762.386841,664.101807 780.650330,662.900696 798.913635,661.697327 
	C803.065308,661.423767 807.215515,661.126282 811.363708,660.805176 
	C816.519531,660.405945 820.472778,662.264587 823.127930,667.258301 
M248.426361,739.220642 
	C257.913879,737.829407 266.934387,738.935425 275.256592,744.074158 
	C281.225403,747.759827 286.743256,752.045837 292.182617,756.449219 
	C302.276062,764.620361 312.087738,773.205017 323.950562,778.854797 
	C337.833252,785.466614 351.464844,785.472656 365.019989,777.622070 
	C375.319458,771.657166 384.180725,763.777100 393.738525,756.830750 
	C417.980103,739.212402 442.182465,739.187134 466.006683,757.205383 
	C473.310577,762.729309 480.201843,768.795715 487.441223,774.408325 
	C504.697113,787.786438 522.583191,787.642090 539.536011,774.094971 
	C544.870972,769.831726 550.148254,765.494202 555.387634,761.113770 
	C568.570190,750.092407 583.191833,742.869812 600.895630,743.697510 
	C615.666077,744.388123 628.204834,750.582275 639.394592,759.752258 
	C642.781799,762.528076 645.660461,762.958374 649.798340,761.264038 
	C663.713806,755.566101 676.807129,748.279358 690.055054,741.277649 
	C719.859192,725.525696 748.400085,707.764099 775.388428,687.541748 
	C776.461731,686.737488 777.923096,686.141296 778.157349,684.141968 
	C769.589600,684.642334 761.285278,685.079041 752.987854,685.620789 
	C724.749512,687.464417 696.516296,689.388733 668.275818,691.199463 
	C640.205200,692.999451 612.127136,694.682434 584.054321,696.448242 
	C558.636536,698.047119 533.222534,699.706848 507.804596,701.303406 
	C494.846771,702.117310 481.878448,702.769836 468.924591,703.639893 
	C447.171997,705.101013 425.433044,706.769043 403.677216,708.178223 
	C384.909943,709.393799 366.098541,710.016235 347.357727,711.532715 
	C316.997070,713.989441 286.564026,715.221436 256.197723,717.478699 
	C250.203232,717.924255 243.999863,717.535095 237.492386,719.479736 
	C240.968506,726.353943 243.823883,732.860291 248.426361,739.220642 
z"/>
<path fill="#000000" opacity="1.000000" stroke="none" 
	d="
M551.306274,467.759949 
	C573.196350,504.556580 591.268616,542.709961 604.030518,583.257324 
	C609.477234,600.562805 614.243713,618.065063 616.773743,636.088379 
	C617.027893,637.898926 617.270569,639.725525 617.310669,641.549194 
	C617.518372,650.991638 611.035645,655.751465 602.185913,652.270996 
	C586.985413,646.292908 571.593323,640.934509 555.868408,636.512085 
	C532.439880,629.922913 508.660736,625.070618 484.472595,622.411987 
	C457.052216,619.398132 429.601837,619.263855 402.272705,623.322327 
	C376.485535,627.151855 351.532837,634.173767 327.351562,643.973999 
	C308.320618,651.686829 289.936005,660.628601 272.620911,671.708313 
	C267.154297,675.206360 261.810760,674.724243 258.233551,670.473572 
	C254.537781,666.082031 254.712357,660.320251 259.134827,655.517761 
	C284.168610,628.332581 299.618164,595.893677 310.665588,561.130371 
	C319.370453,533.738403 323.547119,505.522675 325.920349,476.890839 
	C329.904144,428.828278 321.277252,382.788849 305.650024,337.662872 
	C293.519196,302.633301 278.470062,268.938782 260.008392,236.778122 
	C257.310944,232.079117 257.624176,227.102005 260.636780,223.741013 
	C263.961029,220.032318 268.450500,219.223953 273.808533,221.557419 
	C312.318481,238.328751 347.996887,259.977142 382.030731,284.454651 
	C409.814728,304.437164 435.823364,326.532623 460.036560,350.695221 
	C495.233063,385.818207 525.298828,424.986328 551.306274,467.759949 
M520.472107,606.813171 
	C545.155029,611.385193 569.255188,618.193909 592.766846,626.255920 
	C593.767090,624.973694 593.376343,624.180603 593.206787,623.383911 
	C586.904846,593.772339 576.837219,565.401550 564.434387,537.868408 
	C548.791870,503.143494 529.646973,470.410919 507.582092,439.351288 
	C478.757812,398.776917 445.131256,362.661194 407.166992,330.563385 
	C380.525055,308.038330 352.128632,287.924164 322.163727,270.058014 
	C313.094147,264.650421 303.766418,259.675720 293.295654,253.794296 
	C294.497864,256.644257 295.003662,258.015717 295.639008,259.324249 
	C311.230835,291.436340 324.490448,324.445160 334.061646,358.882629 
	C342.292633,388.497986 347.788361,418.577911 347.851776,449.377380 
	C347.892212,469.002441 346.231781,488.559784 343.536896,508.058380 
	C338.133606,547.153442 327.441284,584.525024 309.121033,619.592224 
	C307.321228,623.037231 305.633026,626.540588 303.863831,630.075195 
	C305.834045,630.843811 307.023010,629.963562 308.150726,629.449463 
	C318.924774,624.537781 329.969452,620.323486 341.216522,616.656738 
	C372.403595,606.489136 404.262909,600.134277 437.186676,599.644531 
	C464.910980,599.232117 492.409332,601.191833 520.472107,606.813171 
z"/>
<path fill="#000000" opacity="1.000000" stroke="none" 
	d="
M529.236328,326.735107 
	C554.641235,345.210754 577.759949,365.765198 599.712830,387.700134 
	C623.062683,411.030945 645.974976,434.715240 665.178528,461.712036 
	C686.956421,492.328064 705.474182,524.818848 721.719543,558.668518 
	C733.544922,583.308533 744.154968,608.441406 753.606812,634.075928 
	C754.712097,637.073669 755.824707,640.008301 754.871033,643.280640 
	C752.955566,649.853210 746.434570,652.772705 739.652222,649.846008 
	C730.167847,645.753235 720.516907,642.128174 710.811951,638.590515 
	C697.295227,633.663574 683.677429,634.520813 669.925842,636.775085 
	C668.613281,636.990295 667.316895,637.304443 666.012695,637.570923 
	C656.751465,639.463196 652.386108,637.047180 649.955078,628.107910 
	C644.839294,609.296570 638.560974,590.873169 631.869873,572.580444 
	C617.488831,533.264404 600.355835,495.202057 580.012207,458.595428 
	C563.068542,428.106720 544.738892,398.588196 520.959900,372.799988 
	C499.989136,350.057220 477.069122,329.580231 451.295013,312.384735 
	C450.325043,311.737610 449.340790,311.105194 448.419617,310.392975 
	C444.581879,307.425720 443.246490,303.591431 444.583435,298.900360 
	C445.961487,294.065125 449.433136,291.791443 454.223236,291.733521 
	C461.668091,291.643433 468.655640,293.893799 475.530792,296.504028 
	C494.839813,303.834900 512.173523,314.679077 529.236328,326.735107 
M609.405396,469.162170 
	C613.532104,477.522766 617.779053,485.826477 621.764771,494.253754 
	C639.659668,532.090088 654.628479,571.065308 666.780396,611.111145 
	C667.958984,614.994934 669.629822,615.753113 673.588806,615.155396 
	C687.389893,613.071533 701.127319,613.134766 714.498169,618.090637 
	C718.145569,619.442505 721.977661,620.296021 725.995056,621.456238 
	C688.072266,519.702698 628.958313,433.778473 544.049927,366.295807 
	C548.053833,372.004578 552.460144,377.415405 556.669373,382.975372 
	C576.945923,409.758789 593.527466,438.816040 609.405396,469.162170 
z"/>
</svg>