<svg version="1.1" id="Layer_1" xmlns="http://www.w3.org/2000/svg" xmlns:xlink="http://www.w3.org/1999/xlink" x="0px" y="0px"
	 width="100%" viewBox="0 0 225 225" enable-background="new 0 0 225 225" xml:space="preserve">
<path fill="#FFFFFF" opacity="1.000000" stroke="none" 
	d="
M110.000000,226.000000 
	C73.333336,226.000000 37.166672,226.000000 1.000005,226.000000 
	C1.000003,151.000000 1.000003,76.000015 1.000002,1.000015 
	C75.999992,1.000010 150.999985,1.000010 225.999969,1.000005 
	C225.999985,75.999985 225.999985,150.999969 226.000000,225.999969 
	C187.500000,226.000000 149.000000,226.000000 110.000000,226.000000 
M95.447311,172.096176 
	C102.260803,173.378098 109.262054,176.352692 115.852272,175.621704 
	C134.923416,173.506317 151.234680,164.677643 165.002594,151.323807 
	C168.285324,148.139801 169.912781,144.004379 168.830994,139.466446 
	C165.696686,126.318466 156.553268,117.941635 145.570862,110.172470 
	C138.677017,123.800774 128.517746,131.874542 113.495338,131.874390 
	C98.471474,131.874252 88.321648,123.785179 81.494476,110.311737 
	C73.204956,115.558746 66.704666,121.805153 61.954758,129.766541 
	C55.457928,140.655930 56.200211,147.949905 66.414482,155.328186 
	C75.228394,161.694885 85.226601,166.422073 95.447311,172.096176 
M87.570168,106.863129 
	C98.329880,118.243385 112.328903,121.813950 125.586708,116.614998 
	C137.982712,111.753990 148.108734,98.946869 147.148865,83.421799 
	C146.219986,68.397835 138.588196,58.447502 125.063652,53.165939 
	C112.286583,48.176277 100.595459,51.362362 90.367043,60.164120 
	C78.699867,70.203964 75.165176,91.537079 87.570168,106.863129 
z"/>
<path fill="#5B56EE" opacity="1.000000" stroke="none" 
	d="
M95.074280,171.985138 
	C85.226601,166.422073 75.228394,161.694885 66.414482,155.328186 
	C56.200211,147.949905 55.457928,140.655930 61.954758,129.766541 
	C66.704666,121.805153 73.204956,115.558746 81.494476,110.311737 
	C88.321648,123.785179 98.471474,131.874252 113.495338,131.874390 
	C128.517746,131.874542 138.677017,123.800774 145.570862,110.172470 
	C156.553268,117.941635 165.696686,126.318466 168.830994,139.466446 
	C169.912781,144.004379 168.285324,148.139801 165.002594,151.323807 
	C151.234680,164.677643 134.923416,173.506317 115.852272,175.621704 
	C109.262054,176.352692 102.260803,173.378098 95.074280,171.985138 
z"/>
<path fill="#FDB7C4" opacity="1.000000" stroke="none" 
	d="
M87.367950,106.566788 
	C75.165176,91.537079 78.699867,70.203964 90.367043,60.164120 
	C100.595459,51.362362 112.286583,48.176277 125.063652,53.165939 
	C138.588196,58.447502 146.219986,68.397835 147.148865,83.421799 
	C148.108734,98.946869 137.982712,111.753990 125.586708,116.614998 
	C112.328903,121.813950 98.329880,118.243385 87.367950,106.566788 
z"/>
</svg>