<svg version="1.1" id="Layer_1" xmlns="http://www.w3.org/2000/svg" xmlns:xlink="http://www.w3.org/1999/xlink" x="0px" y="0px"
	 width="100%" viewBox="0 0 200 200" enable-background="new 0 0 200 200" xml:space="preserve">
<path fill="#000000" opacity="1.000000" stroke="none" 
	d="
M132.000000,201.000000 
	C88.000000,201.000000 44.500004,201.000000 1.000006,201.000000 
	C1.000004,134.333344 1.000004,67.666679 1.000002,1.000015 
	C67.666656,1.000010 134.333313,1.000010 200.999969,1.000005 
	C200.999985,67.666649 200.999985,134.333298 201.000000,200.999969 
	C178.166672,201.000000 155.333328,201.000000 132.000000,201.000000 
M105.529068,162.973175 
	C118.317543,159.373642 131.084137,155.693390 143.906387,152.218475 
	C148.378616,151.006470 150.996323,148.487076 152.211090,143.971375 
	C155.531570,131.628067 159.316849,119.405495 162.416046,107.009598 
	C163.344406,103.296326 163.427475,98.969070 162.506378,95.269547 
	C159.418396,82.866852 155.591034,70.650337 152.282242,58.299454 
	C151.024460,53.604465 148.388718,50.978527 143.691696,49.721279 
	C131.341690,46.415569 119.122322,42.609859 106.730713,39.479053 
	C103.171516,38.579807 99.007751,38.522423 95.458015,39.416428 
	C82.898918,42.579441 70.507164,46.400589 58.005314,49.800663 
	C53.731087,50.963100 51.083889,53.354565 49.899746,57.639538 
	C46.406471,70.280396 42.609516,82.841553 39.373657,95.546539 
	C38.506058,98.953003 38.473476,102.951538 39.338722,106.352318 
	C42.572449,119.062241 46.392090,131.621979 49.873615,144.270615 
	C51.053841,148.558472 53.641975,151.007477 57.915211,152.174057 
	C70.409546,155.584869 82.822319,159.299225 95.346786,162.591263 
	C98.307716,163.369537 101.581535,162.957474 105.529068,162.973175 
z"/>
<path fill="#F900ED" opacity="1.000000" stroke="none" 
	d="
M105.120239,163.033081 
	C101.581535,162.957474 98.307716,163.369537 95.346786,162.591263 
	C82.822319,159.299225 70.409546,155.584869 57.915211,152.174057 
	C53.641975,151.007477 51.053841,148.558472 49.873615,144.270615 
	C46.392090,131.621979 42.572449,119.062241 39.338722,106.352318 
	C38.473476,102.951538 38.506058,98.953003 39.373657,95.546539 
	C42.609516,82.841553 46.406471,70.280396 49.899746,57.639538 
	C51.083889,53.354565 53.731087,50.963100 58.005314,49.800663 
	C70.507164,46.400589 82.898918,42.579441 95.458015,39.416428 
	C99.007751,38.522423 103.171516,38.579807 106.730713,39.479053 
	C119.122322,42.609859 131.341690,46.415569 143.691696,49.721279 
	C148.388718,50.978527 151.024460,53.604465 152.282242,58.299454 
	C155.591034,70.650337 159.418396,82.866852 162.506378,95.269547 
	C163.427475,98.969070 163.344406,103.296326 162.416046,107.009598 
	C159.316849,119.405495 155.531570,131.628067 152.211090,143.971375 
	C150.996323,148.487076 148.378616,151.006470 143.906387,152.218475 
	C131.084137,155.693390 118.317543,159.373642 105.120239,163.033081 
M92.278526,53.750870 
	C78.393745,67.635895 64.491257,81.503288 50.635242,95.416954 
	C46.598560,99.470421 46.564514,102.491936 50.548828,106.493080 
	C65.578453,121.586189 80.637054,136.650650 95.736359,151.674011 
	C99.360565,155.279999 102.555191,155.352509 106.093910,151.835266 
	C121.437088,136.585190 136.713486,121.267876 151.997330,105.958206 
	C155.106186,102.844086 155.346954,99.450348 152.220642,96.303963 
	C136.738419,80.722321 121.204056,65.192177 105.624344,49.707996 
	C102.660545,46.762360 99.402725,46.922611 96.328506,49.727238 
	C95.100388,50.847652 93.963867,52.068481 92.278526,53.750870 
z"/>
<path fill="#000000" opacity="1.000000" stroke="none" 
	d="
M92.532089,53.497234 
	C93.963867,52.068481 95.100388,50.847652 96.328506,49.727238 
	C99.402725,46.922611 102.660545,46.762360 105.624344,49.707996 
	C121.204056,65.192177 136.738419,80.722321 152.220642,96.303963 
	C155.346954,99.450348 155.106186,102.844086 151.997330,105.958206 
	C136.713486,121.267876 121.437088,136.585190 106.093910,151.835266 
	C102.555191,155.352509 99.360565,155.279999 95.736359,151.674011 
	C80.637054,136.650650 65.578453,121.586189 50.548828,106.493080 
	C46.564514,102.491936 46.598560,99.470421 50.635242,95.416954 
	C64.491257,81.503288 78.393745,67.635895 92.532089,53.497234 
z"/>
</svg>