<svg version="1.1" id="Layer_1" xmlns="http://www.w3.org/2000/svg" xmlns:xlink="http://www.w3.org/1999/xlink" x="0px" y="0px"
	 width="100%" viewBox="0 0 128 128" enable-background="new 0 0 128 128" xml:space="preserve">
<path fill="#FCFDFE" opacity="1.000000" stroke="none" 
	d="
M69.000000,129.000000 
	C46.000000,129.000000 23.500000,129.000000 1.000000,129.000000 
	C1.000000,86.333336 1.000000,43.666668 1.000000,1.000000 
	C43.666668,1.000000 86.333336,1.000000 129.000000,1.000000 
	C129.000000,43.666668 129.000000,86.333336 129.000000,129.000000 
	C109.166664,129.000000 89.333336,129.000000 69.000000,129.000000 
M39.366291,65.499908 
	C39.366051,79.318581 39.366833,93.137253 39.364685,106.955925 
	C39.364262,109.696953 39.341152,112.929405 43.032692,112.754074 
	C46.338303,112.597069 46.119789,109.506760 46.117821,106.945137 
	C46.096352,78.974648 46.093307,51.004124 46.119713,23.033646 
	C46.122341,20.250429 46.168770,17.017141 42.530876,17.391594 
	C41.299011,17.518389 39.555702,21.045059 39.516895,23.046545 
	C39.249092,36.860107 39.370377,50.681213 39.366291,65.499908 
M90.634247,102.386993 
	C90.635063,76.409615 90.642151,50.432228 90.621986,24.454863 
	C90.620705,22.802345 90.737045,21.026772 90.180450,19.539852 
	C89.794250,18.508129 88.248894,17.129431 87.396027,17.240953 
	C86.193596,17.398191 84.853844,18.599499 84.140053,19.716797 
	C83.598312,20.564774 83.897484,21.978003 83.897209,23.139730 
	C83.890587,50.948841 83.893990,78.757957 83.896004,106.567070 
	C83.896065,107.399635 83.590378,108.426682 83.965691,109.025688 
	C84.840324,110.421669 86.043716,111.611656 87.113930,112.885094 
	C88.270332,111.702034 89.983902,110.700653 90.443741,109.290459 
	C91.034203,107.479706 90.617432,105.340515 90.634247,102.386993 
M28.198914,75.499969 
	C28.198904,76.498848 28.197945,77.497726 28.199028,78.496605 
	C28.209858,88.484970 28.091175,98.476974 28.371527,108.457779 
	C28.413776,109.961937 30.318699,111.413780 31.361996,112.889824 
	C32.590988,111.407265 33.985165,110.024994 34.973881,108.396561 
	C35.416676,107.667274 35.045551,106.444511 35.045704,105.445686 
	C35.049881,78.310440 35.056171,51.175198 35.053082,24.039951 
	C35.052929,22.711269 35.406055,21.128849 34.816624,20.118481 
	C34.088383,18.870167 32.631859,17.523815 31.323097,17.326403 
	C30.491955,17.201035 29.013393,18.928970 28.458740,20.120684 
	C27.942280,21.230345 28.224567,22.730253 28.223360,24.058428 
	C28.208071,40.872265 28.205112,57.686115 28.198914,75.499969 
M95.244118,110.582092 
	C96.736557,111.205872 98.229004,111.829651 99.721436,112.453438 
	C100.401215,110.725220 101.665558,108.999695 101.673515,107.268394 
	C101.802887,79.116508 101.838707,50.963406 101.634636,22.812477 
	C101.620728,20.894497 99.536484,18.991528 98.415100,17.081573 
	C97.258568,18.986330 95.107162,20.884577 95.094643,22.796818 
	C94.904976,51.779980 94.995728,80.764977 95.244118,110.582092 
M23.996338,67.500000 
	C23.997355,53.185799 24.005251,38.871586 23.989109,24.557404 
	C23.987431,23.069353 24.270666,21.360474 23.647284,20.154297 
	C22.995575,18.893312 21.491957,17.517986 20.200455,17.337111 
	C19.338247,17.216362 17.854952,18.932831 17.278881,20.129917 
	C16.750219,21.228483 17.015085,22.732672 17.014645,24.058174 
	C17.005550,51.355026 17.007915,78.651886 17.011253,105.948738 
	C17.011395,107.113213 16.662636,108.480316 17.149788,109.394005 
	C17.856115,110.718781 19.428675,112.795578 20.181522,112.620094 
	C21.595322,112.290535 23.011927,110.764404 23.804279,109.379402 
	C24.384649,108.364944 23.993340,106.780853 23.993975,105.450623 
	C23.999857,93.133751 23.996798,80.816872 23.996338,67.500000 
M106.003372,102.379501 
	C106.012558,104.543396 105.557350,106.853584 106.178329,108.824745 
	C106.672356,110.392929 108.481232,111.546898 109.706375,112.884750 
	C110.794167,111.590004 112.065125,110.400543 112.894691,108.957359 
	C113.328003,108.203537 112.991470,107.003418 112.991501,106.004875 
	C112.992226,78.537567 112.992004,51.070255 112.989098,23.602943 
	C112.988998,22.604713 113.337273,21.344967 112.864822,20.663618 
	C111.930267,19.315859 110.534538,18.287888 109.329468,17.127707 
	C108.250732,18.255146 106.785461,19.215500 106.204994,20.558327 
	C105.655113,21.830406 106.007080,23.503540 106.006775,25.000305 
	C106.001610,50.469997 106.003357,75.939690 106.003372,102.379501 
M79.297440,91.447464 
	C79.298882,81.486511 79.426315,71.522240 79.163292,61.568272 
	C79.124687,60.107399 77.230469,58.695557 76.194824,57.261028 
	C75.089905,58.644913 73.145157,59.963661 73.031860,61.424458 
	C72.635056,66.540588 72.863899,71.705696 72.865845,76.852203 
	C72.868538,83.990646 72.708862,91.137100 73.040848,98.260452 
	C73.103844,99.612213 75.131927,100.872383 76.253319,102.174812 
	C77.267128,100.918404 78.778992,99.798714 79.170746,98.371552 
	C79.679344,96.518799 79.296638,94.421379 79.297440,91.447464 
M50.704182,52.500439 
	C50.709183,59.145046 50.526859,65.799583 50.878193,72.425827 
	C50.947956,73.741608 53.063480,74.948914 54.235630,76.206245 
	C55.197189,74.930489 56.970818,73.669258 56.993938,72.376717 
	C57.210766,60.254272 57.233685,48.124313 56.986313,36.003189 
	C56.958210,34.626175 54.924839,33.290089 53.821297,31.935022 
	C52.780895,33.307377 50.945793,34.623104 50.843243,36.062283 
	C50.478172,41.185753 50.702709,46.351234 50.704182,52.500439 
M68.206367,77.461151 
	C68.204521,68.141258 68.317398,58.818329 68.070435,49.504936 
	C68.035576,48.190163 66.245094,46.921944 65.267227,45.632172 
	C64.133041,46.580250 62.029274,47.510639 62.011608,48.479092 
	C61.784000,60.955593 61.776390,73.438835 61.987705,85.915718 
	C62.005630,86.974144 63.988785,87.999290 65.058960,89.039894 
	C66.101944,87.837524 67.738449,86.771393 68.052826,85.401779 
	C68.561165,83.187141 68.200317,80.772995 68.206367,77.461151 
z"/>
<path fill="#157FD6" opacity="1.000000" stroke="none" 
	d="
M39.366444,64.999901 
	C39.370377,50.681213 39.249092,36.860107 39.516895,23.046545 
	C39.555702,21.045059 41.299011,17.518389 42.530876,17.391594 
	C46.168770,17.017141 46.122341,20.250429 46.119713,23.033646 
	C46.093307,51.004124 46.096352,78.974648 46.117821,106.945137 
	C46.119789,109.506760 46.338303,112.597069 43.032692,112.754074 
	C39.341152,112.929405 39.364262,109.696953 39.364685,106.955925 
	C39.366833,93.137253 39.366051,79.318581 39.366444,64.999901 
z"/>
<path fill="#157FD6" opacity="1.000000" stroke="none" 
	d="
M90.634415,102.864906 
	C90.617432,105.340515 91.034203,107.479706 90.443741,109.290459 
	C89.983902,110.700653 88.270332,111.702034 87.113930,112.885094 
	C86.043716,111.611656 84.840324,110.421669 83.965691,109.025688 
	C83.590378,108.426682 83.896065,107.399635 83.896004,106.567070 
	C83.893990,78.757957 83.890587,50.948841 83.897209,23.139730 
	C83.897484,21.978003 83.598312,20.564774 84.140053,19.716797 
	C84.853844,18.599499 86.193596,17.398191 87.396027,17.240953 
	C88.248894,17.129431 89.794250,18.508129 90.180450,19.539852 
	C90.737045,21.026772 90.620705,22.802345 90.621986,24.454863 
	C90.642151,50.432228 90.635063,76.409615 90.634415,102.864906 
z"/>
<path fill="#107CD5" opacity="1.000000" stroke="none" 
	d="
M28.198963,74.999969 
	C28.205112,57.686115 28.208071,40.872265 28.223360,24.058428 
	C28.224567,22.730253 27.942280,21.230345 28.458740,20.120684 
	C29.013393,18.928970 30.491955,17.201035 31.323097,17.326403 
	C32.631859,17.523815 34.088383,18.870167 34.816624,20.118481 
	C35.406055,21.128849 35.052929,22.711269 35.053082,24.039951 
	C35.056171,51.175198 35.049881,78.310440 35.045704,105.445686 
	C35.045551,106.444511 35.416676,107.667274 34.973881,108.396561 
	C33.985165,110.024994 32.590988,111.407265 31.361998,112.889824 
	C30.318699,111.413780 28.413776,109.961937 28.371527,108.457779 
	C28.091175,98.476974 28.209858,88.484970 28.199028,78.496605 
	C28.197945,77.497726 28.198904,76.498848 28.198963,74.999969 
z"/>
<path fill="#107CD5" opacity="1.000000" stroke="none" 
	d="
M95.132477,110.165817 
	C94.995728,80.764977 94.904976,51.779980 95.094643,22.796818 
	C95.107162,20.884577 97.258568,18.986330 98.415100,17.081575 
	C99.536484,18.991528 101.620728,20.894497 101.634636,22.812477 
	C101.838707,50.963406 101.802887,79.116508 101.673515,107.268394 
	C101.665558,108.999695 100.401215,110.725220 99.721436,112.453438 
	C98.229004,111.829651 96.736557,111.205872 95.132477,110.165817 
z"/>
<path fill="#0378D4" opacity="1.000000" stroke="none" 
	d="
M23.996338,68.000000 
	C23.996798,80.816872 23.999857,93.133751 23.993975,105.450623 
	C23.993340,106.780853 24.384649,108.364944 23.804279,109.379402 
	C23.011927,110.764404 21.595322,112.290535 20.181522,112.620094 
	C19.428675,112.795578 17.856115,110.718781 17.149788,109.394005 
	C16.662636,108.480316 17.011395,107.113213 17.011253,105.948738 
	C17.007915,78.651886 17.005550,51.355026 17.014645,24.058174 
	C17.015085,22.732672 16.750219,21.228483 17.278881,20.129917 
	C17.854952,18.932831 19.338247,17.216362 20.200455,17.337111 
	C21.491957,17.517986 22.995575,18.893312 23.647284,20.154297 
	C24.270666,21.360474 23.987431,23.069353 23.989109,24.557404 
	C24.005251,38.871586 23.997355,53.185799 23.996338,68.000000 
z"/>
<path fill="#0378D4" opacity="1.000000" stroke="none" 
	d="
M106.003479,101.894440 
	C106.003357,75.939690 106.001610,50.469997 106.006775,25.000305 
	C106.007080,23.503540 105.655113,21.830406 106.204994,20.558327 
	C106.785461,19.215500 108.250732,18.255146 109.329468,17.127705 
	C110.534538,18.287888 111.930267,19.315859 112.864822,20.663618 
	C113.337273,21.344967 112.988998,22.604713 112.989098,23.602943 
	C112.992004,51.070255 112.992226,78.537567 112.991501,106.004875 
	C112.991470,107.003418 113.328003,108.203537 112.894691,108.957359 
	C112.065125,110.400543 110.794167,111.590004 109.706375,112.884750 
	C108.481232,111.546898 106.672356,110.392929 106.178329,108.824745 
	C105.557350,106.853584 106.012558,104.543396 106.003479,101.894440 
z"/>
<path fill="#0379D4" opacity="1.000000" stroke="none" 
	d="
M79.297516,91.938370 
	C79.296638,94.421379 79.679344,96.518799 79.170746,98.371552 
	C78.778992,99.798714 77.267128,100.918404 76.253319,102.174812 
	C75.131927,100.872383 73.103844,99.612213 73.040848,98.260452 
	C72.708862,91.137100 72.868538,83.990646 72.865845,76.852203 
	C72.863899,71.705696 72.635056,66.540588 73.031860,61.424458 
	C73.145157,59.963661 75.089905,58.644913 76.194824,57.261028 
	C77.230469,58.695557 79.124687,60.107399 79.163292,61.568272 
	C79.426315,71.522240 79.298882,81.486511 79.297516,91.938370 
z"/>
<path fill="#0278D4" opacity="1.000000" stroke="none" 
	d="
M50.704102,52.000626 
	C50.702709,46.351234 50.478172,41.185753 50.843243,36.062283 
	C50.945793,34.623104 52.780895,33.307377 53.821297,31.935024 
	C54.924839,33.290089 56.958210,34.626175 56.986313,36.003189 
	C57.233685,48.124313 57.210766,60.254272 56.993938,72.376717 
	C56.970818,73.669258 55.197189,74.930489 54.235626,76.206245 
	C53.063480,74.948914 50.947956,73.741608 50.878193,72.425827 
	C50.526859,65.799583 50.709183,59.145046 50.704102,52.000626 
z"/>
<path fill="#0378D4" opacity="1.000000" stroke="none" 
	d="
M68.206451,77.952126 
	C68.200317,80.772995 68.561165,83.187141 68.052826,85.401779 
	C67.738449,86.771393 66.101944,87.837524 65.058960,89.039894 
	C63.988785,87.999290 62.005630,86.974144 61.987705,85.915718 
	C61.776390,73.438835 61.784000,60.955593 62.011608,48.479092 
	C62.029274,47.510639 64.133041,46.580250 65.267227,45.632172 
	C66.245094,46.921944 68.035576,48.190163 68.070435,49.504936 
	C68.317398,58.818329 68.204521,68.141258 68.206451,77.952126 
z"/>
</svg>